<svg width="66" height="66" viewBox="0 0 66 66" fill="none" xmlns="http://www.w3.org/2000/svg">
<g clip-path="url(#clip0_2288_17603)">
<g clip-path="url(#clip1_2288_17603)">
<path d="M56.5 47H60V13.26C60 11.46 58.54 10 56.74 10H23V13.5H56.5V47Z" fill="#AEDCDD"/>
<path d="M47 56.5H13.5V23H10V56.74C10 58.54 11.46 60 13.26 60H47V56.5Z" fill="#AEDCDD"/>
<path d="M54.51 45H58.01V11.26C58.01 9.46 56.55 8 54.75 8H21.01V11.5H54.51V45Z" fill="#333333"/>
<path d="M45.01 54.5H11.51V21H8.01001V54.74C8.01001 56.54 9.47001 58 11.27 58H45.01V54.5Z" fill="#333333"/>
<path d="M0 0V16H16V0H0ZM13 13H3V3H13V13Z" fill="#333333"/>
<path d="M50 50V66H66V50H50ZM63 63H53V53H63V63Z" fill="#333333"/>
<path d="M33 22C26.92 22 22 26.92 22 33C22 39.08 26.92 44 33 44C39.08 44 44 39.08 44 33C44 26.92 39.08 22 33 22ZM33 41C28.58 41 25 37.42 25 33C25 28.58 28.58 25 33 25C37.42 25 41 28.58 41 33C41 37.42 37.42 41 33 41Z" fill="#333333"/>
<path d="M34.5 37.36C34.5 38.26 33.82 39 33 39C32.18 39 31.5 38.26 31.5 37.36V28.65C31.5 27.75 32.18 27.01 33 27.01C33.82 27.01 34.5 27.75 34.5 28.65V37.36Z" fill="#333333"/>
<path d="M37.36 31.5C38.26 31.5 39 32.18 39 33C39 33.82 38.26 34.5 37.36 34.5H28.65C27.75 34.5 27.01 33.82 27.01 33C27.01 32.18 27.75 31.5 28.65 31.5H37.36Z" fill="#333333"/>
<path d="M41.49 26.01C43.06 27.91 44 30.35 44 33C44 39.08 39.08 44 33 44C30.34 44 27.91 43.06 26.01 41.49C28.03 43.94 31.08 45.5 34.5 45.5C40.58 45.5 45.5 40.58 45.5 34.5C45.5 31.08 43.94 28.03 41.49 26.01Z" fill="#AEDCDD"/>
<path d="M26.11 23.98C26.89 24.76 27.05 25.88 26.47 26.46C25.89 27.04 24.77 26.88 23.99 26.1L14.13 16.24C13.35 15.46 13.19 14.34 13.77 13.76C14.35 13.18 15.47 13.34 16.25 14.12L26.11 23.98Z" fill="#333333"/>
<path d="M51.96 49.84C52.75 50.63 52.92 51.75 52.33 52.33C51.74 52.91 50.62 52.75 49.84 51.96L39.8 41.92C39.01 41.13 38.84 40.01 39.43 39.43C40.02 38.85 41.14 39.01 41.92 39.8L51.96 49.84Z" fill="#333333"/>
</g>
</g>
<defs>
<clipPath id="clip0_2288_17603">
<rect width="66" height="66" fill="white"/>
</clipPath>
<clipPath id="clip1_2288_17603">
<rect width="66" height="66" fill="white"/>
</clipPath>
</defs>
</svg>
