<?xml version="1.0" encoding="UTF-8"?><svg id="Layer_1" xmlns="http://www.w3.org/2000/svg" xmlns:xlink="http://www.w3.org/1999/xlink" viewBox="0 0 66 66"><defs><style>.cls-1{fill:none;}.cls-2{fill:#2c3737;}.cls-3{clip-path:url(#clippath-1);}.cls-4{fill:#dff1f1;}.cls-5{clip-path:url(#clippath);}</style><clipPath id="clippath"><rect class="cls-1" width="66" height="66"/></clipPath><clipPath id="clippath-1"><rect class="cls-1" width="66" height="66"/></clipPath></defs><g class="cls-5"><g class="cls-3"><path class="cls-2" d="M56.5,47h3.5V13.26c0-1.8-1.46-3.26-3.26-3.26H23v3.5h33.5v33.5Z"/><path class="cls-2" d="M47,56.5H13.5V23h-3.5v33.74c0,1.8,1.46,3.26,3.26,3.26h33.74v-3.5Z"/><path class="cls-4" d="M54.51,45h3.5V11.26c0-1.8-1.46-3.26-3.26-3.26H21.01v3.5h33.5v33.5Z"/><path class="cls-4" d="M45.01,54.5H11.51V21h-3.5v33.74c0,1.8,1.46,3.26,3.26,3.26h33.74v-3.5Z"/><path class="cls-4" d="M0,0v16h16V0H0ZM13,13H3V3h10v10Z"/><path class="cls-4" d="M50,50v16h16v-16h-16ZM63,63h-10v-10h10v10Z"/><path class="cls-4" d="M33,22c-6.08,0-11,4.92-11,11s4.92,11,11,11,11-4.92,11-11-4.92-11-11-11ZM33,41c-4.42,0-8-3.58-8-8s3.58-8,8-8,8,3.58,8,8-3.58,8-8,8Z"/><path class="cls-4" d="M34.5,37.36c0,.9-.68,1.64-1.5,1.64s-1.5-.74-1.5-1.64v-8.71c0-.9.68-1.64,1.5-1.64s1.5.74,1.5,1.64v8.71Z"/><path class="cls-4" d="M37.36,31.5c.9,0,1.64.68,1.64,1.5s-.74,1.5-1.64,1.5h-8.71c-.9,0-1.64-.68-1.64-1.5s.74-1.5,1.64-1.5h8.71Z"/><path class="cls-2" d="M41.49,26.01c1.57,1.9,2.51,4.34,2.51,6.99,0,6.08-4.92,11-11,11-2.66,0-5.09-.94-6.99-2.51,2.02,2.45,5.07,4.01,8.49,4.01,6.08,0,11-4.92,11-11,0-3.42-1.56-6.47-4.01-8.49Z"/><path class="cls-4" d="M26.11,23.98c.78.78.94,1.9.36,2.48-.58.58-1.7.42-2.48-.36l-9.86-9.86c-.78-.78-.94-1.9-.36-2.48.58-.58,1.7-.42,2.48.36l9.86,9.86Z"/><path class="cls-4" d="M51.96,49.84c.79.79.96,1.91.37,2.49-.59.58-1.71.42-2.49-.37l-10.04-10.04c-.79-.79-.96-1.91-.37-2.49.59-.58,1.71-.42,2.49.37l10.04,10.04Z"/></g></g></svg>