<svg width="66" height="66" viewBox="0 0 66 66" fill="none" xmlns="http://www.w3.org/2000/svg">
<g clip-path="url(#clip0_2288_17623)">
<g clip-path="url(#clip1_2288_17623)">
<path d="M18.6522 16.4425H14.7065V6.81511C14.7065 5.73006 13.8187 4.84229 12.7337 4.84229C11.6486 4.84229 10.7609 5.73006 10.7609 6.81511V16.4425H6.81522C5.59206 16.4425 4.60565 17.4289 4.60565 18.6521C4.60565 19.8752 5.59206 20.8616 6.81522 20.8616H10.7609V62.0542C10.7609 63.1393 11.6486 64.0271 12.7337 64.0271C13.8187 64.0271 14.7065 63.1393 14.7065 62.0542V20.8616H18.6522C19.8753 20.8616 20.8617 19.8752 20.8617 18.6521C20.8617 17.4289 19.8753 16.4425 18.6522 16.4425Z" fill="#AEDCDD"/>
<path d="M40.3533 49.9805H36.4076V6.81511C36.4076 5.73006 35.5199 4.84229 34.4348 4.84229C33.3498 4.84229 32.462 5.73006 32.462 6.81511V49.9805H28.5163C27.2932 49.9805 26.3068 50.967 26.3068 52.1901C26.3068 53.4133 27.2932 54.3997 28.5163 54.3997H32.462V62.0542C32.462 63.1393 33.3498 64.0271 34.4348 64.0271C35.5199 64.0271 36.4076 63.1393 36.4076 62.0542V54.3997H40.3533C41.5764 54.3997 42.5629 53.4133 42.5629 52.1901C42.5629 50.967 41.5764 49.9805 40.3533 49.9805Z" fill="#AEDCDD"/>
<path d="M62.0543 32.2251H58.1087V6.81511C58.1087 5.73006 57.2209 4.84229 56.1359 4.84229C55.0508 4.84229 54.163 5.73006 54.163 6.81511V32.2251H50.2174C48.9942 32.2251 48.0078 33.2115 48.0078 34.4347C48.0078 35.6578 48.9942 36.6442 50.2174 36.6442H54.163V62.0542C54.163 63.1393 55.0508 64.0271 56.1359 64.0271C57.2209 64.0271 58.1087 63.1393 58.1087 62.0542V36.6442H62.0543C63.2775 36.6442 64.2639 35.6578 64.2639 34.4347C64.2639 33.2115 63.2775 32.2251 62.0543 32.2251Z" fill="#AEDCDD"/>
</g>
<g clip-path="url(#clip2_2288_17623)">
<path d="M15.7826 13.573H11.837V3.9456C11.837 2.86055 10.9492 1.97278 9.86413 1.97278C8.77907 1.97278 7.8913 2.86055 7.8913 3.9456V13.573H3.94565C2.7225 13.573 1.73608 14.5594 1.73608 15.7826C1.73608 17.0057 2.7225 17.9921 3.94565 17.9921H7.8913V59.1847C7.8913 60.2698 8.77907 61.1576 9.86413 61.1576C10.9492 61.1576 11.837 60.2698 11.837 59.1847V17.9921H15.7826C17.0058 17.9921 17.9922 17.0057 17.9922 15.7826C17.9922 14.5594 17.0058 13.573 15.7826 13.573Z" fill="#333333"/>
<path d="M37.4837 47.111H33.5381V3.9456C33.5381 2.86055 32.6503 1.97278 31.5652 1.97278C30.4802 1.97278 29.5924 2.86055 29.5924 3.9456V47.111H25.6468C24.4236 47.111 23.4372 48.0975 23.4372 49.3206C23.4372 50.5438 24.4236 51.5302 25.6468 51.5302H29.5924V59.1847C29.5924 60.2698 30.4802 61.1576 31.5652 61.1576C32.6503 61.1576 33.5381 60.2698 33.5381 59.1847V51.5302H37.4837C38.7069 51.5302 39.6933 50.5438 39.6933 49.3206C39.6933 48.0975 38.7069 47.111 37.4837 47.111Z" fill="#333333"/>
<path d="M59.1848 29.3556H55.2391V3.9456C55.2391 2.86055 54.3513 1.97278 53.2663 1.97278C52.1812 1.97278 51.2935 2.86055 51.2935 3.9456V29.3556H47.3478C46.1247 29.3556 45.1382 30.342 45.1382 31.5652C45.1382 32.7883 46.1247 33.7747 47.3478 33.7747H51.2935V59.1847C51.2935 60.2698 52.1812 61.1576 53.2663 61.1576C54.3513 61.1576 55.2391 60.2698 55.2391 59.1847V33.7747H59.1848C60.4079 33.7747 61.3943 32.7883 61.3943 31.5652C61.3943 30.342 60.4079 29.3556 59.1848 29.3556Z" fill="#333333"/>
</g>
</g>
<defs>
<clipPath id="clip0_2288_17623">
<rect width="66" height="66" fill="white"/>
</clipPath>
<clipPath id="clip1_2288_17623">
<rect width="63.1304" height="63.1304" fill="white" transform="translate(2.86957 2.86951)"/>
</clipPath>
<clipPath id="clip2_2288_17623">
<rect width="63.1304" height="63.1304" fill="white"/>
</clipPath>
</defs>
</svg>
