<?xml version="1.0" encoding="UTF-8"?><svg id="Layer_1" xmlns="http://www.w3.org/2000/svg" xmlns:xlink="http://www.w3.org/1999/xlink" viewBox="0 0 66 66"><defs><style>.cls-1{fill:none;}.cls-2{fill:#2c3737;}.cls-3{clip-path:url(#clippath-1);}.cls-4{clip-path:url(#clippath-2);}.cls-5{fill:#dff1f1;}.cls-6{clip-path:url(#clippath);}</style><clipPath id="clippath"><rect class="cls-1" width="66" height="66"/></clipPath><clipPath id="clippath-1"><rect class="cls-1" x="2.87" y="2.87" width="63.13" height="63.13"/></clipPath><clipPath id="clippath-2"><rect class="cls-1" width="63.13" height="63.13"/></clipPath></defs><g class="cls-6"><g class="cls-3"><path class="cls-2" d="M18.65,16.44h-3.95V6.82c0-1.09-.89-1.97-1.97-1.97s-1.97.89-1.97,1.97v9.63h-3.95c-1.22,0-2.21.99-2.21,2.21s.99,2.21,2.21,2.21h3.95v41.19c0,1.09.89,1.97,1.97,1.97s1.97-.89,1.97-1.97V20.86h3.95c1.22,0,2.21-.99,2.21-2.21s-.99-2.21-2.21-2.21Z"/><path class="cls-2" d="M40.35,49.98h-3.95V6.82c0-1.09-.89-1.97-1.97-1.97s-1.97.89-1.97,1.97v43.17h-3.95c-1.22,0-2.21.99-2.21,2.21s.99,2.21,2.21,2.21h3.95v7.65c0,1.09.89,1.97,1.97,1.97s1.97-.89,1.97-1.97v-7.65h3.95c1.22,0,2.21-.99,2.21-2.21s-.99-2.21-2.21-2.21Z"/><path class="cls-2" d="M62.05,32.23h-3.95V6.82c0-1.09-.89-1.97-1.97-1.97s-1.97.89-1.97,1.97v25.41h-3.95c-1.22,0-2.21.99-2.21,2.21s.99,2.21,2.21,2.21h3.95v25.41c0,1.09.89,1.97,1.97,1.97s1.97-.89,1.97-1.97v-25.41h3.95c1.22,0,2.21-.99,2.21-2.21s-.99-2.21-2.21-2.21Z"/></g><g class="cls-4"><path class="cls-5" d="M15.78,13.57h-3.95V3.95c0-1.09-.89-1.97-1.97-1.97s-1.97.89-1.97,1.97v9.63h-3.95c-1.22,0-2.21.99-2.21,2.21s.99,2.21,2.21,2.21h3.95v41.19c0,1.09.89,1.97,1.97,1.97s1.97-.89,1.97-1.97V17.99h3.95c1.22,0,2.21-.99,2.21-2.21s-.99-2.21-2.21-2.21Z"/><path class="cls-5" d="M37.48,47.11h-3.95V3.95c0-1.09-.89-1.97-1.97-1.97s-1.97.89-1.97,1.97v43.17h-3.95c-1.22,0-2.21.99-2.21,2.21s.99,2.21,2.21,2.21h3.95v7.65c0,1.09.89,1.97,1.97,1.97s1.97-.89,1.97-1.97v-7.65h3.95c1.22,0,2.21-.99,2.21-2.21s-.99-2.21-2.21-2.21Z"/><path class="cls-5" d="M59.18,29.36h-3.95V3.95c0-1.09-.89-1.97-1.97-1.97s-1.97.89-1.97,1.97v25.41h-3.95c-1.22,0-2.21.99-2.21,2.21s.99,2.21,2.21,2.21h3.95v25.41c0,1.09.89,1.97,1.97,1.97s1.97-.89,1.97-1.97v-25.41h3.95c1.22,0,2.21-.99,2.21-2.21s-.99-2.21-2.21-2.21Z"/></g></g></svg>