<?xml version="1.0" encoding="UTF-8"?>
<svg id="Layer_2" xmlns="http://www.w3.org/2000/svg" version="1.1" viewBox="0 0 200 36">
  <!-- Generator: Adobe Illustrator 29.5.1, SVG Export Plug-In . SVG Version: 2.1.0 Build 141)  -->
  <defs>
    <style>
      .st0 {
        fill: #fff;
      }
    </style>
  </defs>
  <g id="svg1">
    <path class="st0" d="M55.7,10.4h4.5v15.9h-4.5v-15.9Z"/>
    <path class="st0" d="M76.2,19.3v7h-4.3v-6.3c0-1.8-.8-2.5-2-2.5s-2.4.9-2.4,2.9v5.9h-4.3v-12.3h4.1v1.3c1-1,2.4-1.5,3.9-1.5,2.9,0,5.1,1.6,5.1,5.5h0Z"/>
    <path class="st0" d="M77.9,25.2l1.3-2.9c1.1.7,2.8,1.1,4.3,1.1s1.9-.3,1.9-.8c0-1.6-7.2.2-7.2-4.7s2.1-4.1,6-4.1,3.6.4,4.8,1l-1.3,2.9c-1.2-.7-2.4-.9-3.5-.9s-2,.4-2,.9c0,1.7,7.2-.1,7.2,4.7s-2.1,4-6.1,4-4.2-.5-5.4-1.3h0Z"/>
    <path class="st0" d="M99.8,25.8c-.8.5-1.9.7-3,.7-3.2,0-5-1.5-5-4.7v-4.1h-1.8v-3.2h1.8v-3.2h4.3v3.2h2.8v3.2h-2.8v4.1c0,.9.5,1.4,1.3,1.4s.9-.1,1.3-.4l1.1,3h0Z"/>
    <path class="st0" d="M109.6,13.8v3.9c-.4,0-.7,0-1,0-1.7,0-2.9.9-2.9,3v5.6h-4.3v-12.3h4.1v1.5c.9-1.1,2.3-1.7,4.1-1.7h0Z"/>
    <path class="st0" d="M124.3,14v12.3h-4.1v-1.3c-.9,1-2.2,1.5-3.6,1.5-3,0-5.2-1.7-5.2-5.6v-6.9h4.3v6.2c0,1.9.8,2.6,2,2.6s2.3-.8,2.3-2.9v-5.9h4.3,0Z"/>
    <path class="st0" d="M126.3,20.1c0-3.7,2.9-6.3,7-6.3s4.9,1.2,5.8,3.4l-3.3,1.7c-.6-1.2-1.4-1.6-2.4-1.6-1.5,0-2.7,1-2.7,2.9s1.2,2.9,2.7,2.9,1.9-.5,2.4-1.6l3.3,1.7c-.8,2.1-3,3.4-5.8,3.4-4.1,0-7-2.6-7-6.4h0Z"/>
    <path class="st0" d="M149.4,25.8c-.8.5-1.9.7-3,.7-3.1,0-5-1.5-5-4.7v-4.1h-1.8v-3.2h1.8v-3.2h4.3v3.2h2.8v3.2h-2.8v4.1c0,.9.5,1.4,1.3,1.4s.9-.1,1.3-.4l1.1,3h0Z"/>
    <path class="st0" d="M151.3,10.4h4.5v12.3h7.6v3.5h-12s0-15.8,0-15.8Z"/>
    <path class="st0" d="M176.6,19.5v6.8h-4v-1.6c-.6,1.2-1.8,1.8-3.6,1.8-2.9,0-4.6-1.6-4.6-3.8s1.6-3.7,5.5-3.7h2.4c0-1.2-.9-1.9-2.6-1.9s-2.5.4-3.3,1.1l-1.4-2.9c1.4-.9,3.5-1.4,5.4-1.4,4,0,6.3,1.8,6.3,5.7h0ZM172.3,22.4v-1.1h-1.9c-1.4,0-1.9.5-1.9,1.2s.6,1.2,1.6,1.2,1.8-.5,2.1-1.4h0Z"/>
    <path class="st0" d="M193,20.1c0,3.9-2.7,6.4-6,6.4s-2.8-.5-3.6-1.4v1.2h-4.1V9.5h4.3v5.6c.8-.9,2-1.3,3.4-1.3,3.3,0,6,2.4,6,6.3h0ZM188.7,20.1c0-1.9-1.1-2.9-2.6-2.9s-2.6,1-2.6,2.9,1.1,2.9,2.6,2.9,2.6-1.1,2.6-2.9Z"/>
    <path class="st0" d="M18.4,19.2c-1,0-1.8,1.1-1.8,2.4s.8,2.4,1.8,2.4,1.8-1.1,1.8-2.4-.8-2.4-1.8-2.4Z"/>
    <path class="st0" d="M46.4,10.1c-.5-.6-1.1-1.3-1.6-1.9-.6-.8-1.1-1.6-1.6-2.3-.9-1.4-1.6-2.5-2.6-2.9-.4-.2-.8-.2-1.2-.3-2,0-3.5,1.6-4.2,2.3-2.4-1.8-6.3-4.1-10.3-4.1s-7.4,2.1-10,4c-.7-.8-2.2-2.3-4.1-2.3-.4,0-.8,0-1.2.3-.8.3-1.4,1.2-2,2.3-.4.6-.8,1.4-1.4,2-.4.5-.8,1-1.3,1.4-2,2.3-3.9,4.4-4,6.4-.1,2.5,4.7,8.9,8.3,11.7,1.7,1.3,3,1.8,4.1,1.5.1,0,.4,0,.6-.2.4.7.8,1.3,1.2,1.9,2.4,3.1,6.5,5,10.8,5s8.5-1.9,10.6-5.1c.3-.5.6-1,.9-1.5,0,0,.2,0,.3,0,.9,0,2.1-.5,3.4-1.6,3.6-2.8,8.4-9.2,8.3-11.7,0-1.6-1.5-3.2-3-5h0ZM25,3h0c1.2,0,5.7.4,11.1,5.3.5.5,1.3,3.6,1.6,7.5h-7.6c-.8,0-1.6.3-2.1.9-.4.5-.6,1.1-.5,1.7l.3,2.1c-.5-.1-1.3-.3-2.1-.3s-1.8.2-2.3.3l.3-2.1c0-.6-.1-1.2-.5-1.7-.5-.6-1.3-.9-2.1-.9h-8.1c-.1-4.1.5-6.8,1-7.2,1.8-1.7,6.5-5.5,11.1-5.5h0ZM13.9,25.2h0c-.9,0-1.6-.7-2-2l-1.5-5c-.1-.4,0-.8.2-1,.3-.4.9-.7,1.5-.8.1,2.9.7,6,1.8,8.8h0ZM12.8,26.4c-.2,0-1,0-2.3-1.1-3.6-2.8-7.6-8.7-7.5-10,0-1.4,1.9-3.4,3.5-5.2.4-.5.9-1,1.3-1.5.6-.8,1.1-1.5,1.6-2.2.4-.6.9-1.4,1.1-1.5.2,0,.4-.1.5-.1h0c1.1,0,2.1,1.1,2.6,1.7v1.1c0,.1-.2.3-.4.4-.8.7-1.4,4-1.3,7.9-.8,0-1.5.5-2,1.1-.4.5-.5,1-.3,1.5l1.5,5c.6,2,1.7,2.5,2.6,2.5h.3c0,0,0,.1,0,.2-.7.1-1.2.3-1.4.3h0ZM12.9,16.5h0c0-.1,8.1-.1,8.1-.1.6,0,1.2.3,1.6.7.2.2.4.6.4,1.1l-.7,5c-.1,1-.8,2-2,2h-5.5c-1.3-3.2-1.7-6.6-1.9-8.7h0ZM35,28.8c-1.7,2.6-5.1,4.2-9,4.2s-7.2-1.6-9.2-4.3c-.7-.9-1.3-1.9-1.8-2.9h5.3c1.3,0,2.4-1,2.6-2.5l.4-2.4c.5-.1,1.4-.4,2.4-.4s1.7.2,2.2.3l.4,2.4c.2,1.5,1.3,2.5,2.6,2.5h5.7c-.4,1-.8,2-1.5,3h0ZM30.7,25.2c-1.2,0-1.8-1-2-2l-.4-2.6h0s-.3-2.4-.3-2.4c0-.5.2-.9.4-1.1.4-.4,1-.7,1.6-.7h7.6c.1,2.8-.1,6-1,8.8h-5.9ZM38.5,16.4h.2c.7,0,1.4.3,1.8.8.2.2.3.6.2,1l-1.5,5c-.3,1.2-.9,1.9-1.7,2,.8-2.8,1.1-6,1-8.8h0ZM40,25.2c-1.3,1-2.1,1.2-2.3,1.1-.1,0-.3,0-.5-.1,0-.1.1-.3.2-.4.8,0,2-.5,2.5-2.5l1.5-5c.2-.5,0-1.1-.3-1.5-.5-.6-1.4-1.1-2.3-1.1h-.2c-.2-4-1-7.3-1.8-8.1v-1.3c.6-.6,1.7-1.8,2.8-1.7.2,0,.4,0,.5.1.4.2,1.1,1.2,1.7,2.2.5.8,1,1.6,1.7,2.5.5.7,1.1,1.3,1.7,2,1.2,1.4,2.5,2.8,2.5,3.8,0,1.4-4,7.3-7.5,10h0Z"/>
    <path class="st0" d="M33,19.2c-1,0-1.8,1.1-1.8,2.4s.8,2.4,1.8,2.4,1.8-1.1,1.8-2.4-.8-2.4-1.8-2.4Z"/>
    <path class="st0" d="M29.1,28.4s-.8.8-1.8.8h0c-.8,0-1.3-1.1-1.3-1.3h.2c.8,0,1.5-.8,1.5-1.7s.3-1.7-1.1-1.7h-1.6c-1.5,0-1.1.8-1.1,1.7s.7,1.7,1.5,1.7h.2c0,.2-.5,1.3-1.3,1.3h0c-1,0-1.8-.8-1.8-.8l-1.2-1.1.7,1.4c0,.1,1.4,2.6,3.9,2.6h0c2.5,0,3.8-2.5,3.9-2.6l.7-1.4-1.2,1.1h0ZM25.7,30.8c-1.1,0-2-.6-2.5-1.2.3.1.6.2.9.2.8,0,1.3-.6,1.6-1.1.3.5.8,1.1,1.6,1.1.3,0,.6,0,.9-.2-.6.6-1.4,1.2-2.6,1.2Z"/>
    <path class="st0" d="M20.5,12.4c-.2-.4-.5-.7-.9-.8-.4-.1-.8,0-1.2.2-.4.3-1.1,1.1-1.3,1.5,0,.1,0,.2,0,.4,0,.1.2.2.3.2h0c.3,0,.6,0,.9,0,1.2,0,1.8-.4,2-.8.2-.2.2-.6.1-.8h0ZM19.6,12.9c-.2.2-.7.4-1.8.3.2-.3.6-.8.9-.9.2-.1.4-.2.6-.1.2,0,.4.2.5.4,0,0,0,.2-.2.3h0Z"/>
    <path class="st0" d="M34.3,13.3c-.2-.4-.9-1.2-1.3-1.5-.4-.3-.8-.4-1.2-.2-.4.1-.7.4-.9.8h0c-.1.2,0,.5.1.8.3.4.8.8,2,.8s.6,0,.9,0c.1,0,.2,0,.3-.2s0-.2,0-.4h0ZM31.8,12.9c-.1-.1-.2-.2-.2-.3.1-.2.3-.4.5-.4.2,0,.4,0,.6.2.2.2.6.6.9.9-1,0-1.5-.1-1.8-.3h0Z"/>
  </g>
</svg>