<?xml version="1.0" encoding="UTF-8"?><svg id="Layer_2" xmlns="http://www.w3.org/2000/svg" viewBox="0 0 200 36"><g id="svg1"><path d="M55.68,10.44h4.48v15.85h-4.48v-15.85Z"/><path d="M76.21,19.27v7.02h-4.3v-6.31c0-1.77-.77-2.51-2.01-2.51-1.38,0-2.44.86-2.44,2.9v5.93h-4.3v-12.27h4.1v1.34c.97-1.02,2.36-1.54,3.89-1.54,2.88,0,5.07,1.65,5.07,5.46h0Z"/><path d="M77.93,25.23l1.29-2.94c1.13.7,2.79,1.13,4.28,1.13s1.92-.32,1.92-.84c0-1.65-7.25.23-7.25-4.68,0-2.31,2.13-4.07,5.98-4.07,1.72,0,3.62.36,4.84,1.04l-1.29,2.92c-1.22-.68-2.45-.9-3.53-.9-1.45,0-1.97.41-1.97.86,0,1.7,7.22-.14,7.22,4.73,0,2.26-2.08,4.03-6.07,4.03-2.08,0-4.23-.52-5.43-1.27h0Z"/><path d="M99.76,25.79c-.75.47-1.86.7-2.99.7-3.15,0-4.98-1.54-4.98-4.68v-4.12h-1.79v-3.21h1.79v-3.19h4.3v3.19h2.81v3.21h-2.81v4.07c0,.9.52,1.4,1.29,1.4.47,0,.95-.14,1.31-.38l1.06,3.01h0Z"/><path d="M109.63,13.82v3.87c-.38-.05-.66-.07-.97-.07-1.74,0-2.94.88-2.94,3.03v5.63h-4.3v-12.27h4.1v1.47c.88-1.11,2.31-1.68,4.12-1.68h0Z"/><path d="M124.34,14.02v12.27h-4.1v-1.31c-.93,1.02-2.24,1.52-3.64,1.52-3.01,0-5.2-1.72-5.2-5.62v-6.86h4.3v6.16c0,1.9.75,2.65,2.04,2.65s2.31-.84,2.31-2.9v-5.91h4.3,0Z"/><path d="M126.33,20.13c0-3.69,2.92-6.31,7.04-6.31,2.79,0,4.91,1.25,5.75,3.37l-3.33,1.7c-.59-1.16-1.45-1.65-2.45-1.65-1.49,0-2.67,1.04-2.67,2.9s1.18,2.94,2.67,2.94c1,0,1.86-.5,2.45-1.65l3.33,1.7c-.84,2.13-2.96,3.37-5.75,3.37-4.12,0-7.04-2.63-7.04-6.36h0Z"/><path d="M149.42,25.79c-.75.47-1.86.7-2.99.7-3.15,0-4.98-1.54-4.98-4.68v-4.12h-1.79v-3.21h1.79v-3.19h4.3v3.19h2.81v3.21h-2.81v4.07c0,.9.52,1.4,1.29,1.4.47,0,.95-.14,1.31-.38l1.06,3.01h0Z"/><path d="M151.27,10.44h4.48v12.29h7.56v3.55h-12.04v-15.84Z"/><path d="M176.56,19.47v6.81h-4v-1.58c-.61,1.18-1.84,1.79-3.62,1.79-2.94,0-4.57-1.65-4.57-3.78,0-2.26,1.65-3.67,5.46-3.67h2.45c-.07-1.25-.9-1.94-2.6-1.94-1.18,0-2.49.41-3.33,1.06l-1.45-2.92c1.4-.93,3.48-1.42,5.41-1.42,3.99,0,6.27,1.77,6.27,5.66h0ZM172.26,22.35v-1.06h-1.86c-1.38,0-1.88.5-1.88,1.25s.59,1.25,1.61,1.25c.95,0,1.79-.45,2.13-1.42h0Z"/><path d="M193.02,20.13c0,3.92-2.69,6.36-6.02,6.36-1.61,0-2.81-.45-3.62-1.42v1.22h-4.1V9.49h4.3v5.59c.84-.86,1.99-1.27,3.42-1.27,3.33,0,6.02,2.42,6.02,6.31h0ZM188.67,20.13c0-1.86-1.13-2.9-2.58-2.9s-2.58,1.04-2.58,2.9,1.13,2.94,2.58,2.94,2.58-1.06,2.58-2.94Z"/><path d="M18.41,19.25c-.97,0-1.75,1.08-1.75,2.41s.79,2.41,1.75,2.41,1.75-1.08,1.75-2.41-.79-2.41-1.75-2.41Z"/><path d="M46.43,10.15c-.54-.62-1.1-1.26-1.58-1.89-.6-.79-1.12-1.62-1.57-2.34-.87-1.41-1.56-2.52-2.58-2.93-.39-.16-.8-.25-1.22-.26-1.97-.05-3.52,1.56-4.17,2.35-2.41-1.79-6.27-4.08-10.3-4.08-3.73,0-7.42,2.11-9.96,3.99-.68-.82-2.2-2.31-4.1-2.26-.42.01-.83.1-1.22.26-.84.34-1.39,1.23-2.04,2.26-.4.63-.85,1.36-1.4,2-.4.47-.84.96-1.26,1.43-2.02,2.26-3.93,4.4-4.03,6.45-.12,2.5,4.7,8.89,8.26,11.67,1.68,1.31,3.01,1.79,4.08,1.46.12-.04.36-.09.65-.16.37.66.79,1.3,1.25,1.89,2.4,3.1,6.52,5.02,10.77,5.02,4.53,0,8.49-1.91,10.59-5.12.32-.49.61-1.01.87-1.55.09,0,.18.02.28.02.94,0,2.06-.52,3.4-1.56,3.56-2.77,8.38-9.16,8.26-11.67-.08-1.62-1.49-3.25-2.99-4.97ZM25,2.95h0c1.24,0,5.7.38,11.06,5.27.53.48,1.35,3.61,1.57,7.51h-7.62c-.79,0-1.58.35-2.08.93-.42.48-.6,1.07-.51,1.66l.3,2.08c-.53-.13-1.31-.28-2.12-.28-.9,0-1.76.19-2.29.33l.31-2.12c.09-.59-.1-1.18-.51-1.66-.51-.58-1.28-.93-2.08-.93h-8.15c-.13-4.1.54-6.84,1-7.25,1.82-1.66,6.54-5.52,11.14-5.52h0ZM13.86,25.22h-.07c-.92,0-1.58-.67-1.97-2l-1.46-5.04c-.12-.42.05-.76.21-.98.32-.42.9-.74,1.47-.82.15,2.85.68,6,1.8,8.83h0ZM12.77,26.39c-.22.07-.97-.09-2.31-1.14-3.55-2.76-7.58-8.67-7.51-10.04.07-1.37,1.91-3.43,3.53-5.25.43-.48.87-.98,1.29-1.47.64-.75,1.13-1.54,1.57-2.23.37-.58.87-1.39,1.13-1.5.18-.07.35-.11.54-.11h.04c1.06,0,2.14,1.1,2.63,1.72l.08,1.08c-.16.14-.31.28-.44.4-.8.73-1.4,3.95-1.27,7.89-.77.09-1.52.5-1.96,1.07-.36.47-.47,1.02-.32,1.54l1.46,5.04c.59,2.03,1.73,2.46,2.58,2.46h.33c.03.06.06.13.09.2-.68.15-1.18.26-1.44.34h0ZM12.9,16.48s0-.07,0-.11h8.12c.6,0,1.21.27,1.59.71.21.24.44.63.36,1.15l-.73,5.04c-.14.97-.8,1.95-1.96,1.95h-5.54c-1.33-3.21-1.74-6.63-1.85-8.73h0ZM34.97,28.81c-1.73,2.65-5.08,4.23-8.95,4.23-3.66,0-7.2-1.63-9.23-4.26-.7-.91-1.27-1.9-1.75-2.94h5.26c1.33,0,2.37-1,2.59-2.5l.35-2.4c.46-.13,1.4-.37,2.36-.37.86,0,1.7.19,2.2.32l.35,2.44c.21,1.49,1.26,2.5,2.59,2.5h5.68c-.38,1.05-.85,2.05-1.45,2.96h0ZM30.74,25.22c-1.16,0-1.82-.98-1.96-1.95l-.38-2.62v-.04s0,0,0,0l-.34-2.36c-.07-.52.16-.91.36-1.15.38-.44.99-.71,1.59-.71h7.65c.11,2.83-.13,6-1.03,8.84h-5.89,0ZM38.5,16.37h.19c.66,0,1.38.34,1.75.84.16.22.33.56.21.98l-1.46,5.04c-.35,1.2-.93,1.86-1.72,1.97.83-2.81,1.1-5.96,1.02-8.82h0ZM39.96,25.25c-1.34,1.05-2.09,1.21-2.31,1.14-.11-.03-.26-.07-.52-.12.05-.14.11-.28.15-.42.85-.01,1.96-.46,2.54-2.46l1.46-5.04c.15-.53.04-1.07-.32-1.54-.49-.65-1.4-1.09-2.26-1.09h-.21c-.18-3.99-1-7.28-1.82-8.09l.09-1.26c.49-.63,1.61-1.75,2.67-1.72.18,0,.36.04.53.11.43.18,1.06,1.18,1.66,2.16.47.77,1.02,1.63,1.68,2.5.52.68,1.1,1.34,1.65,1.99,1.21,1.4,2.47,2.85,2.52,3.79.07,1.37-3.96,7.27-7.51,10.04Z"/><path d="M32.96,19.25c-.97,0-1.75,1.08-1.75,2.41s.79,2.41,1.75,2.41,1.75-1.08,1.75-2.41-.79-2.41-1.75-2.41Z"/><path d="M29.13,28.42s-.84.75-1.81.77h-.02c-.79,0-1.26-1.1-1.32-1.28h.17c.82,0,1.48-.78,1.48-1.73s.31-1.73-1.14-1.73h-1.61c-1.45,0-1.14.78-1.14,1.73s.66,1.73,1.48,1.73h.17c-.07.17-.53,1.28-1.32,1.28h-.02c-.97-.02-1.8-.76-1.81-.77l-1.21-1.08.74,1.44c.05.11,1.37,2.6,3.9,2.62h.03c2.51,0,3.82-2.52,3.87-2.62l.72-1.42-1.18,1.06h0ZM25.69,30.81c-1.11,0-1.97-.61-2.54-1.2.27.1.58.16.9.17.8.02,1.34-.62,1.64-1.12.3.5.84,1.14,1.64,1.12.33,0,.64-.08.92-.18-.57.6-1.44,1.21-2.56,1.21Z"/><path d="M20.45,12.35c-.24-.41-.54-.68-.9-.81-.37-.13-.82-.04-1.18.24-.37.26-1.11,1.11-1.27,1.49-.05.11-.04.25.02.36.06.11.17.18.29.2h0c.33.05.63.06.89.06,1.2,0,1.75-.41,2-.79.16-.23.25-.56.14-.75h0ZM19.63,12.9c-.24.2-.74.41-1.75.32.24-.32.64-.77.88-.94.16-.12.39-.22.59-.15.19.06.36.21.51.45-.02.07-.07.19-.22.32h0Z"/><path d="M34.28,13.26c-.16-.38-.9-1.22-1.26-1.48-.37-.29-.82-.38-1.19-.24-.36.12-.66.4-.9.81h0c-.11.19,0,.52.14.75.26.38.81.79,2,.79.26,0,.56-.02.89-.06.12-.02.23-.09.29-.2.06-.11.07-.24.02-.36h0ZM31.75,12.9c-.15-.12-.2-.25-.22-.32.15-.23.32-.38.51-.45.2-.07.43.03.59.16.23.16.63.61.87.93-1.01.08-1.51-.12-1.75-.32h0Z"/></g></svg>