<svg width="992" height="674" viewBox="0 0 992 674" fill="none" xmlns="http://www.w3.org/2000/svg">
<g clip-path="url(#clip0_73_7952)">
<path d="M992 0H0V673H992V0Z" fill="#F3F3F4"/>
<path d="M679 389V345H955V199H811.5" stroke="#999999" stroke-width="3.54547" stroke-dasharray="3.55 10.64"/>
<path d="M832 361L832 569" stroke="#999999" stroke-width="3.40572" stroke-dasharray="3.41 10.22"/>
<path d="M852.983 602.076C851.76 603.986 832.632 603.782 830.364 603.745C828.182 603.709 809.679 603.28 808.675 601.343C807.632 599.329 817.373 582.865 818.539 580.92C819.662 579.048 829.284 563.238 831.464 563.338C833.729 563.441 843.117 580.109 844.219 582.092C845.278 583.999 854.159 600.238 852.983 602.076Z" fill="#DEDEDD"/>
<path d="M690.17 389H666.378C662.303 389 659 392.303 659 396.378V420.17C659 424.245 662.303 427.548 666.378 427.548H690.17C694.244 427.548 697.548 424.245 697.548 420.17V396.378C697.548 392.303 694.244 389 690.17 389Z" stroke="#DEDEDD" stroke-width="6.33589"/>
<path d="M855 34H604V3" stroke="#999999" stroke-width="3.37552" stroke-dasharray="3.38 10.13"/>
<path d="M673 121H443V49" stroke="#999999" stroke-width="3.37552" stroke-dasharray="3.38 10.13"/>
<path d="M832.135 363.269C842.15 363.269 850.269 355.15 850.269 345.134C850.269 335.119 842.15 327 832.135 327C822.119 327 814 335.119 814 345.134C814 355.15 822.119 363.269 832.135 363.269Z" fill="#DEDEDD"/>
<path d="M975.983 214.076C974.76 215.986 955.632 215.782 953.364 215.745C951.182 215.709 932.679 215.28 931.675 213.343C930.632 211.329 940.373 194.865 941.539 192.92C942.662 191.048 952.284 175.238 954.464 175.338C956.729 175.441 966.117 192.109 967.219 194.092C968.278 196 977.159 212.238 975.983 214.076Z" fill="#DEDEDD"/>
<path d="M442.135 139.269C452.15 139.269 460.269 131.15 460.269 121.134C460.269 111.119 452.15 103 442.135 103C432.119 103 424 111.119 424 121.134C424 131.15 432.119 139.269 442.135 139.269Z" fill="#DEDEDD"/>
<path d="M456.598 30.7407L456.598 30.7407C457.186 31.7981 459.961 36.865 462.418 41.9081C463.65 44.4382 464.773 46.9036 465.502 48.8334C465.737 49.4566 465.918 49.9897 466.047 50.4285C465.548 50.5324 464.92 50.6332 464.169 50.7266C462.027 50.9931 459.212 51.1618 456.295 51.2642C450.478 51.4683 444.5 51.4009 443.241 51.3801C442.031 51.3601 436.255 51.2303 430.66 50.8363C427.852 50.6386 425.155 50.3787 423.12 50.0449C422.462 49.9372 421.91 49.8273 421.466 49.7193C421.625 49.2352 421.852 48.6408 422.147 47.9435C422.987 45.9554 424.248 43.4335 425.618 40.8558C428.35 35.7163 431.397 30.573 432.045 29.4925C432.667 28.4551 435.667 23.518 438.807 18.8689C440.381 16.5364 441.955 14.3309 443.262 12.7349C443.684 12.2195 444.055 11.7963 444.371 11.4654C444.71 11.8457 445.111 12.3393 445.568 12.9431C446.87 14.6648 448.423 17.0179 449.971 19.4933C453.056 24.4288 455.986 29.6394 456.598 30.7407ZM467.072 50.1408C467.07 50.142 467.067 50.1434 467.063 50.1451C467.09 50.1294 467.096 50.1289 467.072 50.1408ZM421.203 50.7413C421.203 50.7725 421.201 50.7779 421.202 50.7512C421.202 50.7485 421.203 50.7452 421.203 50.7413ZM443.609 10.7213C443.611 10.7228 443.614 10.7247 443.617 10.727C443.59 10.7114 443.586 10.7065 443.609 10.7213Z" fill="#F5F5F5" stroke="#DEDEDD" stroke-width="5.06"/>
<path d="M876.706 18.2051H857.694C854.437 18.2051 851.797 20.8449 851.797 24.1013V43.114C851.797 46.3704 854.437 49.0103 857.694 49.0103H876.706C879.963 49.0103 882.603 46.3704 882.603 43.114V24.1013C882.603 20.8449 879.963 18.2051 876.706 18.2051Z" fill="#F3F3F4" stroke="#DEDEDD" stroke-width="5.06328"/>
<path d="M632.226 252.43H640.527V281.773H632.226V252.43Z" fill="black"/>
<path d="M670.251 268.777V281.773H662.28V270.071C662.28 266.797 660.859 265.413 658.549 265.413C655.985 265.413 654.018 267 654.018 270.782V281.773H646.048V259.042H653.637V261.517C655.44 259.626 658.003 258.661 660.846 258.661C666.177 258.661 670.238 261.72 670.238 268.764L670.251 268.777Z" fill="black"/>
<path d="M673.437 279.806L675.823 274.361C677.917 275.656 680.976 276.455 683.742 276.455C686.509 276.455 687.309 275.871 687.309 274.907C687.309 271.848 673.893 275.326 673.893 266.226C673.893 261.949 677.841 258.674 684.961 258.674C688.146 258.674 691.675 259.347 693.934 260.603L691.548 266.01C689.289 264.753 687.017 264.335 685.012 264.335C682.334 264.335 681.369 265.083 681.369 265.921C681.369 269.069 694.746 265.667 694.746 274.678C694.746 278.867 690.888 282.141 683.514 282.141C679.656 282.141 675.67 281.177 673.449 279.793L673.437 279.806Z" fill="black"/>
<path d="M713.86 280.859C712.477 281.735 710.421 282.154 708.326 282.154C702.501 282.154 699.099 279.298 699.099 273.473V265.845H695.787V259.892H699.099V253.978H707.07V259.892H712.274V265.845H707.07V273.397C707.07 275.072 708.034 275.998 709.456 275.998C710.332 275.998 711.22 275.745 711.893 275.288L713.86 280.859Z" fill="black"/>
<path d="M732.136 258.674V265.845C731.425 265.756 730.918 265.718 730.334 265.718C727.11 265.718 724.889 267.355 724.889 271.341V281.786H716.919V259.055H724.508V261.784C726.146 259.727 728.786 258.687 732.136 258.687V258.674Z" fill="black"/>
<path d="M759.398 259.055V281.786H751.809V279.349C750.095 281.24 747.658 282.154 745.057 282.154C739.485 282.154 735.411 278.968 735.411 271.759V259.055H743.381V270.465C743.381 273.993 744.765 275.377 747.151 275.377C749.537 275.377 751.428 273.828 751.428 270.008V259.068H759.398V259.055Z" fill="black"/>
<path d="M763.079 270.376C763.079 263.548 768.486 258.674 776.113 258.674C781.266 258.674 785.213 260.984 786.762 264.918L780.594 268.066C779.502 265.934 777.916 265.007 776.063 265.007C773.296 265.007 771.113 266.936 771.113 270.376C771.113 273.815 773.296 275.821 776.063 275.821C777.903 275.821 779.502 274.894 780.594 272.762L786.762 275.91C785.213 279.857 781.266 282.154 776.113 282.154C768.486 282.154 763.079 277.293 763.079 270.376Z" fill="black"/>
<path d="M805.85 280.859C804.467 281.735 802.411 282.154 800.317 282.154C794.491 282.154 791.09 279.298 791.09 273.473V265.845H787.777V259.892H791.09V253.978H799.06V259.892H804.264V265.845H799.06V273.397C799.06 275.072 800.025 275.998 801.446 275.998C802.322 275.998 803.21 275.745 803.883 275.288L805.85 280.859Z" fill="black"/>
<path d="M809.29 252.43H817.59V275.199H831.589V281.786H809.29V252.442V252.43Z" fill="black"/>
<path d="M856.123 269.158V281.773H848.698V278.841C847.568 281.024 845.296 282.154 841.984 282.154C836.539 282.154 833.518 279.095 833.518 275.148C833.518 270.96 836.577 268.358 843.621 268.358H848.152C848.025 266.048 846.477 264.753 843.329 264.753C841.146 264.753 838.722 265.502 837.161 266.721L834.483 261.314C837.085 259.601 840.943 258.674 844.51 258.674C851.884 258.674 856.123 261.949 856.123 269.158ZM848.152 274.488V272.521H844.713C842.149 272.521 841.235 273.447 841.235 274.831C841.235 276.214 842.327 277.141 844.218 277.141C845.982 277.141 847.53 276.303 848.165 274.501L848.152 274.488Z" fill="black"/>
<path d="M886.608 270.376C886.608 277.623 881.621 282.154 875.452 282.154C872.47 282.154 870.249 281.316 868.738 279.514V281.773H861.149V250.666H869.119V261.022C870.668 259.436 872.812 258.674 875.452 258.674C881.621 258.674 886.608 263.154 886.608 270.376ZM878.562 270.376C878.562 266.936 876.468 265.007 873.777 265.007C871.086 265.007 868.992 266.936 868.992 270.376C868.992 273.815 871.086 275.821 873.777 275.821C876.468 275.821 878.562 273.853 878.562 270.376Z" fill="black"/>
<path d="M723.392 139.891C726.139 139.891 728.367 136.72 728.367 132.809C728.367 128.898 726.139 125.727 723.392 125.727C720.644 125.727 718.417 128.898 718.417 132.809C718.417 136.72 720.644 139.891 723.392 139.891Z" fill="black"/>
<path d="M723.392 140.513C720.295 140.513 717.782 137.061 717.782 132.809C717.782 128.557 720.295 125.105 723.392 125.105C726.489 125.105 729.001 128.557 729.001 132.809C729.001 137.061 726.489 140.513 723.392 140.513ZM723.392 126.362C720.993 126.362 719.038 129.255 719.038 132.809C719.038 136.363 720.993 139.257 723.392 139.257C725.79 139.257 727.745 136.363 727.745 132.809C727.745 129.255 725.79 126.362 723.392 126.362Z" fill="black"/>
<path d="M769.933 139.891C772.68 139.891 774.908 136.72 774.908 132.809C774.908 128.898 772.68 125.727 769.933 125.727C767.185 125.727 764.957 128.898 764.957 132.809C764.957 136.72 767.185 139.891 769.933 139.891Z" fill="black"/>
<path d="M769.933 140.513C766.836 140.513 764.323 137.061 764.323 132.809C764.323 128.557 766.836 125.105 769.933 125.105C773.029 125.105 775.542 128.557 775.542 132.809C775.542 137.061 773.029 140.513 769.933 140.513ZM769.933 126.362C767.534 126.362 765.579 129.255 765.579 132.809C765.579 136.363 767.534 139.257 769.933 139.257C772.331 139.257 774.286 136.363 774.286 132.809C774.286 129.255 772.331 126.362 769.933 126.362Z" fill="black"/>
<path d="M837.326 86.5603L843.494 83.7935C844.84 83.197 846.312 83.8315 846.781 85.2403L849.117 92.2335C849.586 93.6296 848.876 95.2542 847.53 95.8507L841.362 98.6175C840.017 99.214 838.545 98.5794 838.075 97.1707L835.74 90.1775C835.27 88.7814 835.981 87.1568 837.326 86.5603Z" fill="black"/>
<path d="M832.11 82.3211C830.587 82.5623 820.586 83.0953 818.974 83.0192C818.796 83.0192 817.806 81.8135 817.831 81.6231C818.047 79.9858 820.408 70.0735 820.928 68.5886C820.992 68.4236 822.261 68.3474 822.413 68.5124C823.72 69.8958 831.361 79.2751 832.465 80.8362C832.592 81.0139 832.287 82.2831 832.122 82.3084L832.11 82.3211Z" fill="black"/>
<path d="M839.458 75.1629C842.837 75.1629 845.576 72.4241 845.576 69.0455C845.576 65.6669 842.837 62.928 839.458 62.928C836.08 62.928 833.341 65.6669 833.341 69.0455C833.341 72.4241 836.08 75.1629 839.458 75.1629Z" fill="black"/>
<path d="M749.131 235.715C747.722 235.715 746.313 235.537 745.057 235.156C743.813 234.788 742.747 234.255 741.96 233.595L674.173 231.158C673.069 231.12 672.053 230.651 671.317 229.851C670.581 229.064 670.213 228.049 670.251 226.983C670.34 224.762 672.218 223.036 674.477 223.099L689.263 223.632L697.082 226.881L707.755 224.292L744.524 225.612L744.612 225.853C744.993 226.944 745.793 227.858 746.859 228.404C748.369 229.191 750.248 229.153 751.732 228.315C752.646 227.807 753.357 227.021 753.751 226.094L753.839 225.878L822.857 220.992C824.99 220.852 826.868 222.439 827.02 224.546V224.635C827.097 225.65 826.767 226.64 826.107 227.414C825.421 228.201 824.469 228.683 823.429 228.747L756.606 233.481C755.845 234.103 754.893 234.598 753.776 234.978C752.354 235.448 750.755 235.689 749.156 235.689L749.131 235.715Z" fill="#454B9A"/>
<path d="M746.085 231.209L677.561 229.128C676.825 229.103 676.241 228.493 676.267 227.757C676.291 227.021 676.927 226.437 677.638 226.462L746.046 228.544L818.39 224.559L816.448 196.662C816.397 195.926 816.956 195.291 817.692 195.241C818.441 195.19 819.063 195.748 819.113 196.484L821.233 227.084L746.072 231.234L746.085 231.209Z" fill="#454B9A"/>
<path d="M760.883 220.586C760.452 220.586 760.033 220.383 759.779 219.989C759.373 219.38 759.538 218.555 760.147 218.136C760.655 217.794 772.839 209.671 785.658 205.343C798.565 200.977 810.026 201.865 810.508 201.904C811.244 201.967 811.79 202.602 811.727 203.338C811.663 204.074 811.029 204.62 810.293 204.556C810.178 204.556 798.87 203.693 786.521 207.869C774.057 212.082 761.772 220.269 761.645 220.345C761.416 220.497 761.162 220.573 760.909 220.573L760.883 220.586Z" fill="#454B9A"/>
<path d="M772.027 221.525C771.557 221.525 771.1 221.284 770.859 220.84C770.504 220.192 770.732 219.38 771.367 219.025C771.709 218.834 780.035 214.215 791.572 212.324C803.096 210.432 812.869 212.082 813.275 212.159C813.999 212.285 814.481 212.971 814.367 213.707C814.252 214.443 813.554 214.913 812.831 214.798C812.729 214.786 803.084 213.148 792.016 214.976C780.962 216.791 772.763 221.335 772.687 221.373C772.484 221.487 772.255 221.538 772.039 221.538L772.027 221.525Z" fill="#454B9A"/>
<path d="M690.71 207.742C690.71 207.742 690.659 207.742 690.634 207.742C686.268 207.513 683.285 207.602 683.26 207.602C682.511 207.64 681.902 207.044 681.889 206.308C681.864 205.572 682.448 204.95 683.184 204.937C683.311 204.937 686.306 204.835 690.786 205.077C691.522 205.115 692.081 205.749 692.043 206.485C692.005 207.196 691.421 207.755 690.71 207.755V207.742Z" fill="#454B9A"/>
<path d="M736.807 222.731C736.566 222.731 736.325 222.667 736.109 222.528C736.045 222.49 729.319 218.327 720.828 214.646C720.155 214.354 719.838 213.567 720.13 212.895C720.422 212.222 721.209 211.905 721.881 212.197C730.562 215.966 737.441 220.218 737.505 220.269C738.127 220.662 738.317 221.474 737.936 222.109C737.683 222.515 737.251 222.744 736.807 222.744V222.731Z" fill="#454B9A"/>
<path d="M684.453 218.758C683.831 218.758 683.285 218.327 683.146 217.692C682.994 216.969 683.45 216.271 684.174 216.118C684.25 216.106 686.09 215.725 689.098 215.408C689.822 215.332 690.482 215.865 690.571 216.601C690.659 217.337 690.114 217.984 689.378 218.073C686.509 218.378 684.732 218.746 684.72 218.746C684.631 218.771 684.529 218.771 684.44 218.771L684.453 218.758Z" fill="#454B9A"/>
<path d="M725.701 224.051C725.498 224.051 725.283 224 725.092 223.898C725.054 223.873 721.272 221.944 715.472 220.256C714.761 220.053 714.355 219.304 714.558 218.606C714.761 217.895 715.51 217.489 716.208 217.692C722.275 219.456 726.146 221.436 726.311 221.525C726.971 221.868 727.225 222.667 726.882 223.327C726.641 223.784 726.184 224.051 725.689 224.051H725.701Z" fill="#454B9A"/>
<path d="M748.356 218.073C747.925 218.073 747.506 217.87 747.239 217.476C746.833 216.867 746.999 216.029 747.608 215.623C748.394 215.103 766.925 202.843 779.096 198.274C791.369 193.667 812.615 194.263 813.516 194.288C814.252 194.313 814.836 194.923 814.811 195.659C814.787 196.395 814.176 196.966 813.44 196.954C813.224 196.954 791.813 196.344 780.035 200.774C768.156 205.229 749.283 217.718 749.093 217.844C748.864 217.997 748.61 218.073 748.356 218.073Z" fill="#454B9A"/>
<path d="M748.103 218.022C747.862 218.022 747.608 217.959 747.392 217.819C747.278 217.755 736.274 210.813 725.752 205.762C725.092 205.444 724.813 204.645 725.13 203.985C725.448 203.325 726.247 203.046 726.907 203.363C737.568 208.49 748.712 215.509 748.826 215.573C749.448 215.966 749.638 216.791 749.245 217.413C748.991 217.819 748.559 218.035 748.115 218.035L748.103 218.022Z" fill="#454B9A"/>
<path d="M682.765 199.175C682.067 199.175 681.483 198.629 681.432 197.931C681.382 197.195 681.94 196.56 682.676 196.51C682.74 196.51 688.54 196.129 695.761 196.332C696.498 196.356 697.081 196.966 697.056 197.702C697.032 198.439 696.383 199.035 695.685 198.997C688.591 198.807 682.905 199.175 682.841 199.175C682.817 199.175 682.778 199.175 682.752 199.175H682.765Z" fill="#454B9A"/>
<path d="M677.485 229.546C677.485 229.546 677.46 229.546 677.435 229.546C676.698 229.521 676.127 228.899 676.153 228.163L677.168 198.87C677.193 198.134 677.815 197.576 678.551 197.588C679.288 197.614 679.859 198.236 679.833 198.972L678.818 228.264C678.793 228.988 678.196 229.546 677.485 229.546Z" fill="#454B9A"/>
<path d="M747.722 171.9C735.208 171.9 723.074 166.278 716.081 157.241C698.96 135.119 701.6 93.6423 707.057 88.6544C713.099 83.1334 728.836 70.2893 744.485 70.2766H744.498C761.137 70.2766 777.154 83.7046 781.66 87.8294C787.257 92.9442 793.121 134.954 778.601 157.152C772.56 166.392 761.01 171.9 747.722 171.9ZM744.485 72.9419C729.776 72.9419 714.672 85.3037 708.86 90.6216C707.336 92.0177 705.001 101.765 705.775 116.221C706.283 125.588 708.568 143.166 718.188 155.604C724.699 164.006 736.02 169.235 747.722 169.235C760.109 169.235 770.821 164.171 776.367 155.693C791.115 133.152 783.373 93.0077 779.858 89.7966C762.724 74.1603 748.458 72.9419 744.485 72.9419Z" fill="#454B9A"/>
<path d="M824.99 116.919L831.627 117.148L824.99 116.919Z" fill="#454B9A"/>
<path d="M825.039 115.591L824.945 118.255L831.592 118.489L831.686 115.826L825.039 115.591Z" fill="#454B9A"/>
<path d="M822.464 128.849L829.153 129.091L822.464 128.849Z" fill="#454B9A"/>
<path d="M822.517 127.51L822.421 130.174L829.105 130.415L829.201 127.752L822.517 127.51Z" fill="#454B9A"/>
<path d="M820.281 135.449L827.439 135.767L820.281 135.449Z" fill="#454B9A"/>
<path d="M820.36 134.133L820.243 136.796L827.407 137.113L827.524 134.45L820.36 134.133Z" fill="#454B9A"/>
<path d="M823.225 123.582L829.914 123.824L823.225 123.582Z" fill="#454B9A"/>
<path d="M823.258 122.244L823.162 124.907L829.846 125.149L829.942 122.485L823.258 122.244Z" fill="#454B9A"/>
<path d="M783.627 146.212H762.838C758.573 146.212 755.248 143.001 754.55 138.216L752.227 122.11C751.961 120.219 752.532 118.341 753.865 116.805C755.477 114.939 757.964 113.822 760.515 113.822H788.298C791.064 113.822 793.971 115.231 795.545 117.313C796.674 118.823 797.03 120.574 796.547 122.25L791.889 138.356C790.011 144.854 786.368 146.212 783.64 146.212H783.627ZM760.503 115.866C758.573 115.866 756.619 116.741 755.4 118.138C754.74 118.899 754.004 120.156 754.245 121.805L756.568 137.911C757.012 141.021 759.132 144.156 762.825 144.156H783.614C786.559 144.156 788.678 142.011 789.909 137.772L794.567 121.666C794.948 120.333 794.415 119.216 793.895 118.531C792.714 116.957 790.404 115.853 788.285 115.853H760.503V115.866Z" fill="#454B9A"/>
<path d="M729.42 146.212H708.631C705.902 146.212 702.247 144.854 700.381 138.356L695.723 122.25C695.241 120.574 695.597 118.823 696.726 117.313C698.3 115.218 701.206 113.822 703.973 113.822H731.756C734.307 113.822 736.782 114.939 738.406 116.805C739.739 118.341 740.31 120.219 740.043 122.11L737.721 138.216C737.035 143.001 733.697 146.212 729.433 146.212H729.42ZM703.973 115.866C701.854 115.866 699.544 116.97 698.363 118.544C697.843 119.242 697.297 120.346 697.691 121.679L702.349 137.784C703.567 142.024 705.687 144.168 708.644 144.168H729.433C733.139 144.168 735.246 141.034 735.69 137.924L738.013 121.818C738.254 120.168 737.518 118.912 736.858 118.15C735.639 116.741 733.685 115.878 731.756 115.878H703.973V115.866Z" fill="#454B9A"/>
<path d="M737.873 130.842L737.353 129.395C737.53 129.332 741.769 127.834 746.377 127.834C750.984 127.834 755.223 129.332 755.4 129.395L754.88 130.842C754.88 130.842 750.704 129.37 746.377 129.37C742.049 129.37 737.911 130.829 737.873 130.842Z" fill="#454B9A"/>
<path d="M770.288 107.921C766.468 107.921 764.703 106.613 763.879 105.395C763.384 104.659 763.066 103.593 763.422 102.996C764.196 101.676 765.16 100.813 766.303 100.407C767.496 99.9756 768.917 100.267 770.11 101.194C771.265 102.019 773.651 104.722 774.159 105.941C774.311 106.309 774.286 106.728 774.083 107.083C773.88 107.438 773.537 107.667 773.144 107.718C772.077 107.857 771.126 107.921 770.288 107.921ZM765.363 103.77C765.427 103.986 765.605 104.392 766.074 104.786C766.848 105.42 768.435 106.08 771.684 105.814C770.922 104.798 769.628 103.364 768.904 102.844C768.384 102.45 767.635 102.121 767.001 102.349C766.404 102.565 765.858 103.034 765.376 103.77H765.363Z" fill="#454B9A"/>
<path d="M723.062 107.921C722.211 107.921 721.259 107.857 720.206 107.718C719.813 107.667 719.47 107.438 719.267 107.083C719.064 106.74 719.038 106.309 719.191 105.941C719.698 104.722 722.084 102.019 723.265 101.169C724.432 100.267 725.854 99.9883 727.047 100.407C728.176 100.801 729.154 101.676 729.915 102.996C730.271 103.593 729.953 104.659 729.458 105.395C728.646 106.613 726.882 107.921 723.049 107.921H723.062ZM721.678 105.814C724.927 106.08 726.514 105.42 727.288 104.786C727.758 104.392 727.935 103.999 727.999 103.77C727.516 103.034 726.971 102.552 726.374 102.349C725.74 102.12 724.991 102.45 724.496 102.819C723.747 103.352 722.452 104.786 721.691 105.814H721.678Z" fill="#454B9A"/>
<path d="M746.757 163.955C746.757 163.955 746.694 163.955 746.656 163.955C738.584 163.892 734.357 155.908 734.18 155.566L731.794 150.959L735.652 154.423C735.652 154.423 738.343 156.81 741.452 156.873C744.27 156.911 745.755 152.735 745.767 152.697L746.656 150.184L747.544 152.697C747.544 152.697 749.055 156.873 751.809 156.873C751.821 156.873 751.847 156.873 751.859 156.873C754.994 156.81 757.634 154.449 757.66 154.423L761.467 150.971L759.132 155.553C758.954 155.896 754.766 163.942 746.745 163.942L746.757 163.955ZM738.533 158.231C740.361 160.109 743.115 162.039 746.668 162.064C750.26 162.089 753.027 160.122 754.867 158.206C753.966 158.523 752.976 158.751 751.91 158.764C749.346 158.84 747.608 156.784 746.668 155.185C745.729 156.784 744.003 158.815 741.427 158.764C740.399 158.739 739.421 158.523 738.546 158.218L738.533 158.231Z" fill="#454B9A"/>
<path d="M749.194 230.714C748.115 230.714 747.037 230.46 746.059 229.965C743.99 228.899 742.683 226.856 742.645 224.635C742.645 223.898 743.216 223.289 743.952 223.277C744.663 223.277 745.298 223.848 745.31 224.584C745.336 225.828 746.085 226.97 747.278 227.592C748.509 228.226 750.032 228.201 751.237 227.528C752.405 226.881 753.116 225.701 753.091 224.457C753.091 223.721 753.662 223.112 754.398 223.099C755.134 223.086 755.743 223.67 755.756 224.406C755.794 226.627 754.563 228.721 752.532 229.851C751.504 230.422 750.336 230.714 749.181 230.714H749.194Z" fill="#454B9A"/>
<path d="M791.978 161.594C802.284 154.55 811.511 149.651 818.529 147.367C819.037 145.082 819.57 142.785 820.103 140.526C813.288 142.125 803.16 146.415 788.475 156.454C785.518 158.472 782.358 158.802 779.693 158.498C779.832 158.294 779.972 158.091 780.099 157.876C780.924 156.594 781.698 155.223 782.434 153.751C782.739 153.814 782.98 153.865 783.107 153.903C786.508 154.944 790.772 153.421 796.154 149.232C807.538 140.374 822.972 119.914 822.578 111.906C822.324 106.74 817.793 101.524 813.009 96.003C811.282 94.0104 809.506 91.967 807.957 89.9363C806.028 87.4106 804.378 84.7707 802.931 82.4354C800.139 77.9425 797.931 74.3888 794.682 73.0562C793.425 72.5358 792.105 72.2566 790.772 72.2185C783.97 72.0155 778.753 78.006 777.015 80.2778C769.818 74.7315 757.342 66.8753 744.485 66.8753H744.473C732.936 66.8753 721.501 73.4623 713.022 79.9732C711.081 77.5237 705.991 72.0282 699.506 72.2058C698.173 72.2439 696.853 72.5231 695.596 73.0435C692.919 74.135 691.142 76.9906 689.073 80.2778C687.804 82.3085 686.357 84.6057 684.605 86.6745C683.324 88.1848 681.927 89.7459 680.582 91.2563C674.122 98.5033 668.03 105.331 667.7 111.893C667.306 119.889 682.74 140.348 694.124 149.207C699.506 153.395 703.77 154.918 707.171 153.878C707.781 153.687 709.418 153.332 711.246 152.926C712.312 154.753 713.454 156.467 714.66 158.053C715.827 159.589 717.147 161.049 718.594 162.419C718.137 162.99 717.642 163.6 717.135 164.234C697.107 189.136 676.698 216.639 688.121 227.808C690.748 230.384 693.947 231.691 697.488 231.691C698.655 231.691 699.861 231.552 701.092 231.26C713.137 228.468 726.755 211.841 731.451 198.654C732.022 197.03 731.184 195.253 729.56 194.682C727.935 194.098 726.158 194.948 725.587 196.573C721.526 207.983 709.329 222.972 699.683 225.193C696.739 225.878 694.442 225.282 692.462 223.353C690.609 221.538 688.997 216.055 698.96 199.581C705.89 188.133 715.561 176.101 721.97 168.131C723.252 166.544 724.382 165.135 725.308 163.955L725.333 163.93C722.122 161.81 719.33 159.272 717.109 156.403C714.799 153.408 712.857 150.083 711.246 146.555L710.649 146.681C708.111 147.24 706.27 147.633 705.331 147.925C704.608 148.154 702.222 147.633 697.932 144.295C686.585 135.462 673.69 116.564 673.906 112.198C674.122 107.832 680.011 101.232 685.215 95.3938C686.585 93.8581 688.007 92.2716 689.327 90.7105C691.383 88.2991 692.957 85.7988 694.34 83.5777C695.52 81.6993 697.12 79.1356 697.944 78.7929C698.516 78.5644 699.074 78.4375 699.658 78.4248C703.072 78.336 706.626 81.9151 708.187 83.9204L708.568 89.0352C715.167 83.1208 730.004 71.5966 744.46 71.5839C759.398 71.5839 774.4 82.9939 780.746 88.7814C781.025 89.0352 781.317 89.4413 781.609 89.9617L782.053 83.9077C783.576 81.9658 787.181 78.3233 790.582 78.4121C791.166 78.4248 791.724 78.5517 792.295 78.7802C793.679 79.3513 795.684 82.575 797.613 85.6845C799.136 88.1341 800.862 90.9136 802.982 93.6804C804.645 95.8507 806.485 97.9829 808.274 100.039C812.158 104.519 816.182 109.152 816.334 112.172C816.55 116.538 803.655 135.436 792.295 144.27C788.006 147.608 785.632 148.128 784.896 147.9C784.427 147.76 783.665 147.595 781.964 147.265C780.759 150.514 779.274 153.586 777.446 156.365C775.898 158.726 773.968 160.833 771.735 162.648L773.055 163.155C776.228 164.374 784.439 166.671 791.953 161.544L791.978 161.594Z" fill="#454B9A"/>
<path d="M786.61 191.217C792.283 188.577 802.449 183.615 812.26 177.599C812.729 175.149 813.3 172.281 813.935 169.121C803.807 175.809 791.483 182.142 782.662 186.178C780.911 186.978 779.908 188.856 780.226 190.76L780.594 193.032C780.873 194.733 782.472 195.875 784.173 195.608C785.873 195.329 787.016 193.73 786.749 192.029L786.622 191.217H786.61Z" fill="#454B9A"/>
<path d="M836.895 145.171C835.372 142.531 832.909 140.754 829.787 140.044C829.47 139.967 829.114 139.904 828.734 139.853L826.957 145.92C827.465 145.958 827.959 146.009 828.404 146.11C829.863 146.44 830.841 147.126 831.501 148.281C831.894 148.953 832.338 150.07 831.742 151.936C830.625 155.413 826.906 159.386 821.829 163.435L818.948 173.271C827.959 167.103 835.625 160.249 837.681 153.827C838.671 150.743 838.392 147.748 836.907 145.158L836.895 145.171Z" fill="#454B9A"/>
<path d="M807.716 187.283L808.008 185.696C808.465 183.196 819.253 124.407 826.335 110.37L826.716 109.609L840.22 110.142L817.628 187.219L807.716 187.283ZM828.34 112.35C822.058 125.981 812.691 175.124 810.927 184.605L815.636 184.567L836.704 112.68L828.353 112.35H828.34Z" fill="#454B9A"/>
<path d="M744.092 141.681H749.232C753.865 141.681 752.862 144.156 752.862 147.227C752.862 150.299 750.742 152.774 748.115 152.774H745.196C742.569 152.774 740.449 150.299 740.449 147.227C740.449 144.156 739.447 141.681 744.079 141.681H744.092Z" fill="black"/>
<path d="M-91 0L193.409 0.709667C345.468 233.502 735 252.434 735 673H-91V0Z" fill="#454B9A"/>
<path d="M85.1078 590.014L102.86 582.051C106.732 580.334 110.969 582.161 112.321 586.215L119.042 606.342C120.393 610.36 118.348 615.036 114.476 616.752L96.7236 624.715C92.8516 626.432 88.6145 624.606 87.2629 620.551L80.5418 600.425C79.1903 596.407 81.2359 591.731 85.1078 590.014Z" fill="#333890"/>
<path d="M70.0949 577.814C65.7116 578.508 36.9279 580.042 32.2889 579.823C31.7775 579.823 28.9283 576.353 29.0014 575.805C29.6223 571.093 36.4165 542.565 37.9141 538.291C38.0967 537.816 41.7495 537.597 42.1878 538.072C45.9502 542.053 67.9397 569.047 71.1176 573.54C71.4829 574.051 70.6063 577.704 70.1314 577.777L70.0949 577.814Z" fill="#333890"/>
<path d="M91.2442 557.213C100.968 557.213 108.85 549.33 108.85 539.606C108.85 529.883 100.968 522 91.2442 522C81.5206 522 73.6379 529.883 73.6379 539.606C73.6379 549.33 81.5206 557.213 91.2442 557.213Z" fill="#333890"/>
</g>
<defs>
<clipPath id="clip0_73_7952">
<rect width="992" height="674" fill="white"/>
</clipPath>
</defs>
</svg>
