<?xml version="1.0" encoding="UTF-8"?>
<svg id="svg1" xmlns="http://www.w3.org/2000/svg" version="1.1" viewBox="0 0 300 300">
  <!-- Generator: Adobe Illustrator 29.5.1, SVG Export Plug-In . SVG Version: 2.1.0 Build 141)  -->
  <defs>
    <style>
      .st0 {
        fill: none;
      }

      .st1 {
        fill: #b1b2e2;
      }

      .st2 {
        fill: #fff;
      }
    </style>
  </defs>
  <g>
    <path class="st2" d="M54.4,208.4h6.5v23.1h-6.5v-23.1Z"/>
    <path class="st2" d="M84.4,221.3v10.2h-6.3v-9.2c0-2.6-1.1-3.7-2.9-3.7s-3.6,1.2-3.6,4.2v8.7h-6.3v-17.9h6v1.9c1.4-1.5,3.4-2.2,5.7-2.2,4.2,0,7.4,2.4,7.4,8h0Z"/>
    <path class="st2" d="M86.9,230l1.9-4.3c1.7,1,4.1,1.6,6.2,1.6s2.8-.5,2.8-1.2c0-2.4-10.6.3-10.6-6.8s3.1-5.9,8.7-5.9,5.3.5,7.1,1.5l-1.9,4.3c-1.8-1-3.6-1.3-5.2-1.3s-2.9.6-2.9,1.2c0,2.5,10.5-.2,10.5,6.9s-3,5.9-8.8,5.9-6.2-.8-7.9-1.9h0Z"/>
    <path class="st2" d="M118.7,230.8c-1.1.7-2.7,1-4.4,1-4.6,0-7.3-2.2-7.3-6.8v-6h-2.6v-4.7h2.6v-4.7h6.3v4.7h4.1v4.7h-4.1v5.9c0,1.3.8,2.1,1.9,2.1s1.4-.2,1.9-.6l1.6,4.4h0Z"/>
    <path class="st2" d="M133.1,213.3v5.6c-.6,0-1-.1-1.4-.1-2.5,0-4.3,1.3-4.3,4.4v8.2h-6.3v-17.9h6v2.1c1.3-1.6,3.4-2.4,6-2.4h0Z"/>
    <path class="st2" d="M154.6,213.6v17.9h-6v-1.9c-1.4,1.5-3.3,2.2-5.3,2.2-4.4,0-7.6-2.5-7.6-8.2v-10h6.3v9c0,2.8,1.1,3.9,3,3.9s3.4-1.2,3.4-4.2v-8.6h6.3Z"/>
    <path class="st2" d="M157.5,222.6c0-5.4,4.3-9.2,10.3-9.2s7.2,1.8,8.4,4.9l-4.9,2.5c-.9-1.7-2.1-2.4-3.6-2.4-2.2,0-3.9,1.5-3.9,4.2s1.7,4.3,3.9,4.3,2.7-.7,3.6-2.4l4.9,2.5c-1.2,3.1-4.3,4.9-8.4,4.9-6,0-10.3-3.8-10.3-9.3h0Z"/>
    <path class="st2" d="M191.2,230.8c-1.1.7-2.7,1-4.4,1-4.6,0-7.3-2.2-7.3-6.8v-6h-2.6v-4.7h2.6v-4.7h6.3v4.7h4.1v4.7h-4.1v5.9c0,1.3.8,2.1,1.9,2.1s1.4-.2,1.9-.6l1.6,4.4h0Z"/>
    <path class="st2" d="M193.9,208.4h6.5v17.9h11v5.2h-17.6v-23.1h0Z"/>
    <path class="st2" d="M230.8,221.6v9.9h-5.9v-2.3c-.9,1.7-2.7,2.6-5.3,2.6-4.3,0-6.7-2.4-6.7-5.5s2.4-5.4,8-5.4h3.6c-.1-1.8-1.3-2.8-3.8-2.8s-3.6.6-4.9,1.6l-2.1-4.3c2.1-1.4,5.1-2.1,7.9-2.1,5.8,0,9.1,2.6,9.1,8.3ZM224.5,225.8v-1.6h-2.7c-2,0-2.7.7-2.7,1.8s.9,1.8,2.4,1.8,2.6-.7,3.1-2.1h0Z"/>
    <path class="st2" d="M254.8,222.6c0,5.7-3.9,9.3-8.8,9.3s-4.1-.7-5.3-2.1v1.8h-6v-24.5h6.3v8.2c1.2-1.2,2.9-1.9,5-1.9,4.9,0,8.8,3.5,8.8,9.2h0ZM248.5,222.6c0-2.7-1.6-4.2-3.8-4.2s-3.8,1.5-3.8,4.2,1.6,4.3,3.8,4.3,3.8-1.6,3.8-4.3Z"/>
  </g>
  <g>
    <path class="st1" d="M146.5,195.2c-1.1,0-2.2-.1-3.2-.4-1-.3-1.8-.7-2.4-1.2l-53.4-1.9c-.9,0-1.7-.4-2.2-1-.6-.6-.9-1.4-.8-2.3,0-1.8,1.6-3.1,3.3-3.1l11.7.4,6.2,2.6,8.4-2,29,1v.2c.4.9,1,1.6,1.8,2,1.2.6,2.7.6,3.8,0,.7-.4,1.3-1,1.6-1.8v-.2c0,0,54.5-3.9,54.5-3.9,1.7-.1,3.2,1.1,3.3,2.8h0c0,.9-.2,1.7-.7,2.3-.5.6-1.3,1-2.1,1.1l-52.7,3.7c-.6.5-1.4.9-2.2,1.2-1.1.4-2.4.6-3.6.6h0Z"/>
    <path class="st1" d="M144.1,191.7l-54-1.6c-.6,0-1-.5-1-1.1,0-.6.5-1,1.1-1l53.9,1.6,57-3.1-1.5-22c0-.6.4-1.1,1-1.1.6,0,1.1.4,1.1,1l1.7,24.1-59.2,3.3h0Z"/>
    <g id="path72-9">
      <path class="st1" d="M155.8,183.3c-.3,0-.7-.2-.9-.5-.3-.5-.2-1.1.3-1.5.4-.3,10-6.7,20.1-10.1,10.2-3.4,19.2-2.7,19.6-2.7.6,0,1,.6,1,1.1s-.6,1-1.1,1c0,0-9-.7-18.7,2.6-9.8,3.3-19.5,9.8-19.6,9.8-.2.1-.4.2-.6.2h0Z"/>
    </g>
    <g id="path73-1">
      <path class="st1" d="M164.6,184.1c-.4,0-.7-.2-.9-.5-.3-.5-.1-1.1.4-1.4.3-.1,6.8-3.8,15.9-5.3,9.1-1.5,16.8-.2,17.1-.1.6.1.9.6.9,1.2s-.6.9-1.2.9c0,0-7.7-1.3-16.4.1-8.7,1.4-15.2,5-15.2,5-.2,0-.3.1-.5.1h0Z"/>
    </g>
    <g id="path72-9-8">
      <path class="st1" d="M100.5,173.2h0c-3.4-.2-5.8-.1-5.8-.1-.6,0-1.1-.4-1.1-1,0-.6.4-1.1,1-1.1,0,0,2.5,0,6,.1.6,0,1,.5,1,1.1,0,.6-.5,1-1.1,1h0Z"/>
    </g>
    <g id="path72-9-8-2">
      <path class="st1" d="M136.8,185c-.2,0-.4,0-.6-.2,0,0-5.4-3.3-12-6.2-.5-.2-.8-.9-.6-1.4.2-.5.8-.8,1.4-.6,6.8,3,12.3,6.3,12.3,6.4.5.3.6.9.3,1.4-.2.3-.5.5-.9.5h0Z"/>
    </g>
    <g id="path73-1-7">
      <path class="st1" d="M95.6,181.9c-.5,0-.9-.3-1-.8-.1-.6.2-1.1.8-1.2,0,0,1.5-.3,3.9-.6.6,0,1.1.4,1.2.9s-.4,1.1-.9,1.2c-2.3.2-3.7.5-3.7.5,0,0-.2,0-.2,0h0Z"/>
    </g>
    <g id="path73-1-7-2">
      <path class="st1" d="M128.1,186.1c-.2,0-.3,0-.5-.1,0,0-3-1.5-7.6-2.9-.6-.2-.9-.8-.7-1.3.2-.6.8-.9,1.3-.7,4.8,1.4,7.8,2.9,8,3,.5.3.7.9.4,1.4-.2.4-.6.6-.9.6h0Z"/>
    </g>
    <path class="st1" d="M145.9,181.3c-.3,0-.7-.2-.9-.5-.3-.5-.2-1.1.3-1.5.6-.4,15.2-10.1,24.8-13.7,9.7-3.6,26.4-3.2,27.1-3.1.6,0,1,.5,1,1.1,0,.6-.5,1-1.1,1-.2,0-17-.5-26.3,3-9.4,3.5-24.2,13.4-24.4,13.4-.2.1-.4.2-.6.2h0Z"/>
    <path class="st1" d="M145.7,181.3c-.2,0-.4,0-.6-.2,0,0-8.8-5.5-17.1-9.5-.5-.2-.7-.9-.5-1.4.2-.5.9-.7,1.4-.5,8.4,4,17.2,9.6,17.3,9.6.5.3.6,1,.3,1.4-.2.3-.5.5-.9.5h0Z"/>
    <path class="st1" d="M94.2,166.4c-.6,0-1-.4-1.1-1,0-.6.4-1.1,1-1.1,0,0,4.6-.3,10.3-.1.6,0,1,.5,1,1.1,0,.6-.5,1.1-1.1,1-5.6-.1-10.1.1-10.1.1h0,0Z"/>
    <g>
      <line class="st0" x1="90.1" y1="189.3" x2="90.9" y2="166.2"/>
      <path class="st1" d="M90.1,190.4h0c-.6,0-1-.5-1-1.1l.8-23.1c0-.6.5-1,1.1-1,.6,0,1,.5,1,1.1l-.8,23.1c0,.6-.5,1-1,1Z"/>
    </g>
    <g id="path41">
      <path class="st1" d="M145.4,145c-9.9,0-19.4-4.4-24.9-11.6-13.5-17.4-11.4-50.1-7.1-54h0c4.8-4.3,17.2-14.5,29.5-14.5h0c13.1,0,25.7,10.6,29.3,13.8,4.4,4,9,37.1-2.4,54.6-4.8,7.3-13.9,11.6-24.3,11.6h0ZM142.9,67h0c-11.6,0-23.5,9.7-28.1,13.9h0c-1.2,1.1-3,8.8-2.4,20.2.4,7.4,2.2,21.2,9.8,31,5.1,6.6,14.1,10.7,23.3,10.7s18.2-4,22.6-10.7c11.6-17.8,5.5-49.4,2.8-51.9-13.5-12.3-24.7-13.3-27.9-13.3h0Z"/>
    </g>
    <g id="path56">
      <path class="st1" d="M206.3,101.6l5.2.2"/>
      <rect class="st1" x="207.9" y="99.1" width="2.1" height="5.2" transform="translate(99.9 306.9) rotate(-88)"/>
    </g>
    <g id="path57">
      <path class="st1" d="M204.3,111l5.3.2"/>
      <rect class="st1" x="205.9" y="108.5" width="2.1" height="5.3" transform="translate(88.4 313.9) rotate(-87.9)"/>
    </g>
    <g id="path58">
      <path class="st1" d="M202.6,116.2l5.6.2"/>
      <rect class="st1" x="204.4" y="113.6" width="2.1" height="5.7" transform="translate(80.1 316.5) rotate(-87.5)"/>
    </g>
    <g id="path59">
      <path class="st1" d="M204.9,106.9l5.3.2"/>
      <rect class="st1" x="206.5" y="104.3" width="2.1" height="5.3" transform="translate(93.1 310.5) rotate(-87.9)"/>
    </g>
    <g id="ellipse43">
      <ellipse class="st2" cx="126.2" cy="114.2" rx="3.9" ry="5.6"/>
      <path class="st2" d="M126.2,120.2c-2.4,0-4.4-2.7-4.4-6.1s2-6.1,4.4-6.1,4.4,2.7,4.4,6.1-2,6.1-4.4,6.1ZM126.2,109.1c-1.9,0-3.4,2.3-3.4,5.1s1.5,5.1,3.4,5.1,3.4-2.3,3.4-5.1-1.5-5.1-3.4-5.1Z"/>
    </g>
    <g id="ellipse44">
      <ellipse class="st2" cx="162.9" cy="114.2" rx="3.9" ry="5.6"/>
      <path class="st2" d="M162.9,120.2c-2.4,0-4.4-2.7-4.4-6.1s2-6.1,4.4-6.1,4.4,2.7,4.4,6.1-2,6.1-4.4,6.1ZM162.9,109.1c-1.9,0-3.4,2.3-3.4,5.1s1.5,5.1,3.4,5.1,3.4-2.3,3.4-5.1-1.5-5.1-3.4-5.1Z"/>
    </g>
    <g id="path45">
      <path class="st1" d="M173.7,124.7h-16.4c-3.4,0-6-2.5-6.5-6.3l-1.8-12.7c-.2-1.5.2-3,1.3-4.2,1.3-1.5,3.2-2.3,5.2-2.3h21.9c2.2,0,4.5,1.1,5.7,2.8.9,1.2,1.2,2.6.8,3.9l-3.7,12.7c-1.5,5.1-4.4,6.2-6.5,6.2h0ZM155.5,100.8c-1.5,0-3.1.7-4,1.8-.5.6-1.1,1.6-.9,2.9l1.8,12.7c.4,2.4,2,4.9,4.9,4.9h16.4c2.3,0,4-1.7,5-5l3.7-12.7c.3-1.1-.1-1.9-.5-2.5-.9-1.2-2.8-2.1-4.4-2.1h-21.9Z"/>
    </g>
    <g id="path46">
      <path class="st1" d="M131,124.7h-16.4c-2.2,0-5-1.1-6.5-6.2l-3.7-12.7c-.4-1.3,0-2.7.8-3.9,1.2-1.7,3.5-2.8,5.7-2.8h21.9c2,0,4,.9,5.2,2.3,1.1,1.2,1.5,2.7,1.3,4.2l-1.8,12.7c-.5,3.8-3.2,6.3-6.5,6.3h0ZM110.9,100.8c-1.7,0-3.5.9-4.4,2.1-.4.6-.8,1.4-.5,2.5l3.7,12.7c1,3.3,2.6,5,5,5h16.4c2.9,0,4.6-2.5,4.9-4.9l1.8-12.7c.2-1.3-.4-2.3-.9-2.9-1-1.1-2.5-1.8-4-1.8h-21.9,0Z"/>
    </g>
    <g id="path47">
      <path class="st1" d="M137.6,112.6l-.4-1.1c.1,0,3.5-1.2,7.1-1.2s7,1.2,7.1,1.2l-.4,1.1s-3.3-1.2-6.7-1.2-6.7,1.2-6.7,1.2Z"/>
    </g>
    <g id="path48">
      <path class="st1" d="M163.2,94.6c-3,0-4.4-1-5.1-2-.4-.6-.6-1.4-.4-1.9h0c.6-1,1.4-1.7,2.3-2,.9-.3,2.1-.1,3,.6.9.7,2.8,2.8,3.2,3.7.1.3.1.6,0,.9s-.4.5-.7.5c-.8.1-1.6.2-2.2.2ZM164.8,93.6h0ZM159.3,91.3c0,.2.2.5.6.8.6.5,1.9,1,4.4.8-.6-.8-1.6-1.9-2.2-2.3-.4-.3-1-.6-1.5-.4-.5.2-.9.5-1.3,1.1h0ZM159.2,91.5h0Z"/>
    </g>
    <g id="path48-2">
      <path class="st1" d="M126,94.6c-.7,0-1.4,0-2.2-.2h0c-.3,0-.6-.2-.7-.5-.2-.3-.2-.6,0-.9.4-1,2.3-3.1,3.2-3.8.9-.7,2-.9,3-.6.9.3,1.7,1,2.3,2,.3.5,0,1.3-.4,1.9-.6,1-2,2-5.1,2h0ZM124.9,92.9c2.6.2,3.8-.3,4.4-.8.4-.3.5-.6.6-.8-.4-.6-.8-1-1.3-1.1-.5-.2-1.1,0-1.5.4-.6.4-1.6,1.6-2.2,2.4h0Z"/>
    </g>
    <g id="path50">
      <path class="st1" d="M144.6,138.7h0c-6.4,0-9.7-6.3-9.8-6.6l-1.9-3.6,3,2.7s2.1,1.9,4.6,1.9h0c2.2,0,3.4-3.3,3.4-3.3l.7-2,.7,2s1.2,3.3,3.4,3.3h0c2.5,0,4.6-1.9,4.6-1.9l3-2.7-1.8,3.6c-.1.3-3.4,6.6-9.8,6.6h0ZM138.2,134.2c1.4,1.5,3.6,3,6.4,3,2.8,0,5-1.5,6.5-3-.7.2-1.5.4-2.3.4-2,0-3.4-1.6-4.1-2.8-.7,1.3-2.1,2.9-4.1,2.8-.8,0-1.6-.2-2.3-.4h0Z"/>
    </g>
    <g id="rect79">
      <path class="st2" d="M216,77.7l4.9-2.2c1.1-.5,2.2,0,2.6,1.1l1.8,5.5c.4,1.1-.2,2.4-1.2,2.8l-4.9,2.2c-1.1.5-2.2,0-2.6-1.1l-1.8-5.5c-.4-1.1.2-2.4,1.2-2.8Z"/>
    </g>
    <g id="path80">
      <path class="st2" d="M211.9,74.4c-1.2.2-9.1.6-10.4.6-.1,0-.9-.9-.9-1.1.2-1.3,2-9.1,2.4-10.3,0-.1,1.1-.2,1.2,0,1,1.1,7.1,8.5,7.9,9.7.1.1-.1,1.1-.3,1.2h0Z"/>
    </g>
    <g id="path81">
      <circle class="st2" cx="217.7" cy="63.9" r="4.8"/>
    </g>
    <g id="path70-2">
      <path class="st1" d="M146.6,191.3c-.9,0-1.7-.2-2.5-.6-1.6-.8-2.7-2.4-2.7-4.2,0-.6.4-1.1,1-1.1.6,0,1.1.4,1.1,1,0,1,.6,1.9,1.6,2.4,1,.5,2.2.5,3.1,0,.9-.5,1.5-1.4,1.5-2.4,0-.6.4-1.1,1-1.1.6,0,1.1.4,1.1,1,0,1.8-.9,3.4-2.5,4.3-.8.4-1.7.7-2.6.7h0Z"/>
    </g>
    <g>
      <path class="st1" d="M180.3,136.8c8.1-5.6,15.4-9.4,20.9-11.2.4-1.8.8-3.6,1.2-5.4-5.4,1.3-13.4,4.6-24.9,12.5-2.3,1.6-4.8,1.9-6.9,1.6.1-.2.2-.3.3-.5.6-1,1.3-2.1,1.8-3.2.2,0,.4,0,.5.1,2.7.8,6-.4,10.3-3.7,9-7,21.1-23.1,20.8-29.4-.2-4.1-3.8-8.2-7.5-12.5-1.4-1.6-2.8-3.2-4-4.8-1.5-2-2.8-4.1-4-5.9-2.2-3.5-3.9-6.3-6.5-7.4-1-.4-2-.6-3.1-.7-5.4-.2-9.5,4.6-10.8,6.3-5.7-4.4-15.5-10.6-25.6-10.6h0c-9.1,0-18.1,5.2-24.8,10.3-1.5-1.9-5.5-6.3-10.7-6.1-1.1,0-2.1.2-3.1.7-2.1.9-3.5,3.1-5.1,5.7-1,1.6-2.1,3.4-3.5,5-1,1.2-2.1,2.4-3.2,3.6-5.1,5.7-9.9,11.1-10.2,16.3-.3,6.3,11.8,22.4,20.8,29.4,4.2,3.3,7.6,4.5,10.3,3.7.5-.1,1.8-.4,3.2-.8.8,1.4,1.7,2.8,2.7,4,.9,1.2,2,2.4,3.1,3.4-.4.4-.8.9-1.2,1.4-15.8,19.6-31.9,41.3-22.9,50.1,2.1,2,4.6,3.1,7.4,3.1s1.9-.1,2.8-.3c9.5-2.2,20.2-15.3,23.9-25.7.4-1.3-.2-2.7-1.5-3.1-1.3-.5-2.7.2-3.1,1.5-3.2,9-12.8,20.8-20.4,22.6-2.3.5-4.1,0-5.7-1.4-1.5-1.4-2.7-5.8,5.1-18.7,5.5-9,13.1-18.5,18.1-24.8,1-1.2,1.9-2.4,2.6-3.3h0c-2.5-1.7-4.7-3.7-6.5-5.9-1.8-2.4-3.3-5-4.6-7.8h-.5c-2,.5-3.4.8-4.2,1.1-.6.2-2.4-.2-5.8-2.9-8.9-7-19.1-21.8-18.9-25.3s4.8-8.6,8.9-13.2c1.1-1.2,2.2-2.5,3.2-3.7,1.6-1.9,2.9-3.9,3.9-5.6.9-1.5,2.2-3.5,2.8-3.8.4-.2.9-.3,1.3-.3,2.7,0,5.5,2.8,6.7,4.3l.3,4c5.2-4.7,16.9-13.7,28.3-13.8,11.8,0,23.6,9,28.6,13.6.2.2.4.5.7.9l.4-4.8c1.2-1.5,4-4.4,6.7-4.3.5,0,.9.1,1.4.3,1.1.4,2.7,3,4.2,5.4,1.2,1.9,2.6,4.1,4.2,6.3,1.3,1.7,2.8,3.4,4.2,5,3.1,3.5,6.2,7.2,6.4,9.6.2,3.4-10,18.3-18.9,25.3-3.4,2.6-5.2,3-5.8,2.9-.4-.1-1-.2-2.3-.5-.9,2.6-2.1,5-3.6,7.2-1.2,1.9-2.7,3.5-4.5,4.9l1,.4c2.5,1,9,2.8,14.9-1.3h0Z"/>
      <path class="st1" d="M176.1,160.2c4.5-2.1,12.5-6,20.2-10.7.4-1.9.8-4.2,1.3-6.7-8,5.3-17.7,10.3-24.6,13.4-1.4.6-2.2,2.1-1.9,3.6l.3,1.8c.2,1.3,1.5,2.2,2.8,2,1.3-.2,2.2-1.5,2-2.8v-.6h-.1Z"/>
      <path class="st1" d="M215.7,123.9c-1.2-2.1-3.1-3.5-5.6-4-.2,0-.5-.1-.8-.2l-1.4,4.8c.4,0,.8,0,1.1.2,1.1.3,1.9.8,2.4,1.7.3.5.7,1.4.2,2.9-.9,2.7-3.8,5.9-7.8,9.1l-2.3,7.8c7.1-4.9,13.1-10.3,14.8-15.3.8-2.4.6-4.8-.6-6.8h0Z"/>
    </g>
    <g id="path55">
      <path class="st1" d="M192.7,157.1l.2-1.2c.4-2,8.9-48.3,14.4-59.3l.3-.6,10.6.4-17.8,60.7h-7.8ZM208.9,98c-4.9,10.7-12.3,49.5-13.7,56.9h3.7s16.6-56.7,16.6-56.7l-6.6-.3h0Z"/>
    </g>
    <g id="path44">
      <path class="st2" d="M142.6,121.2h4.1c3.6,0,2.9,1.9,2.9,4.4s-1.7,4.4-3.7,4.4h-2.3c-2.1,0-3.7-1.9-3.7-4.4s-.8-4.4,2.9-4.4h0Z"/>
    </g>
  </g>
</svg>