<svg width="440" xmlns="http://www.w3.org/2000/svg" height="240" fill="none"><g data-testid="InstructLab-Background-Image"><defs><clipPath id="a" class="frame-clip frame-clip-def"><rect rx="0" ry="0" width="440" height="240"/></clipPath></defs><g clip-path="url(#a)"><g class="fills"><rect width="440" height="240" class="frame-background" style="fill: rgb(69, 75, 154); fill-opacity: 1;" ry="0" rx="0"/></g><g class="frame-children"><g data-testid="svg-g" style="fill: rgb(0, 0, 0);"><g class="fills" data-testid="svg-path"><path d="M244.896 201.227c-1.092.333-8.366 1.754-9.555 1.864-.13.019-.98-.763-.981-.905-.01-1.222.699-8.73.927-9.871.03-.128.952-.314 1.081-.209 1.1.879 7.665 6.966 8.635 7.996.112.117.019 1.079-.107 1.125Z" class="cls-1" style="stroke-width: 0px; fill: rgb(51, 56, 144); fill-opacity: 1;"/></g></g><g data-testid="Group"><path d="M303.038 34C347.907 34 411 54.132 411 98.919 411 143.707 389.531 195 344.662 195 299.793 195 238 173.57 238 128.782 238 83.995 258.169 34 303.038 34ZM316.5 181.5" style="fill: rgb(255, 255, 255); fill-opacity: 1;" class="fills" data-testid="Squircle"/><g data-testid="shapes" style="fill: rgb(0, 0, 0);"><g data-testid="svg-rect"><rect rx="0" ry="0" x="335" y="49" width="10.188" height="10.188" style="fill: none; fill-opacity: 1; stroke-dasharray: none; stroke-dashoffset: 0;" class="fills"/><g class="strokes" style="fill: none; fill-opacity: 1; stroke-dasharray: none; stroke-dashoffset: 0;"><rect rx="0" ry="0" x="335" y="49" width="10.188" height="10.188" style="fill: none; stroke-width: 1.33966; stroke: rgb(222, 222, 221); stroke-opacity: 1;" class="stroke-shape"/></g></g><path d="M392.68 131.812c-.404.632-6.731.564-7.481.552-.722-.012-6.841-.154-7.173-.794-.345-.667 2.876-6.112 3.262-6.755.371-.619 3.554-5.848 4.275-5.815.749.034 3.854 5.547 4.218 6.203.351.631 3.288 6.001 2.899 6.609Z" style="stroke: none; stroke-width: 0.529167; stroke-dasharray: 0.529167, 1.5875; stroke-dashoffset: 0; fill: rgb(222, 222, 221); fill-opacity: 1;" class="fills" data-testid="svg-path"/><circle cx="344.998" cy="181.998" style="stroke: none; stroke-width: 1.182; stroke-dasharray: none; fill: rgb(222, 222, 221); fill-opacity: 1;" r="5.998" class="fills" data-testid="svg-ellipse"/><g data-testid="svg-path"><path d="M323 159v21" style="fill: none; fill-opacity: 1; stroke-dasharray: 0.938072, 2.81422; stroke-dashoffset: 0;" class="fills"/><g class="strokes" style="fill: none; fill-opacity: 1; stroke-dasharray: 0.938072, 2.81422; stroke-dashoffset: 0;"><path d="M323 159v21" style="fill: none; stroke-width: 0.938072; stroke: rgb(153, 153, 153); stroke-opacity: 1;" class="stroke-shape"/></g></g><g data-testid="svg-path"><path d="M304 184v6.5" style="fill: none; fill-opacity: 1; stroke-dasharray: 0.938072, 2.81422; stroke-dashoffset: 0;" class="fills"/><g class="strokes" style="fill: none; fill-opacity: 1; stroke-dasharray: 0.938072, 2.81422; stroke-dashoffset: 0;"><path d="M304 184v6.5" style="fill: none; stroke-width: 0.938072; stroke: rgb(153, 153, 153); stroke-opacity: 1;" class="stroke-shape"/></g></g><g data-testid="svg-path"><path d="M336.35 182H306" style="fill: none; fill-opacity: 1; stroke-dasharray: 0.901096, 2.70329; stroke-dashoffset: 0;" class="fills"/><g class="strokes" style="fill: none; fill-opacity: 1; stroke-dasharray: 0.901096, 2.70329; stroke-dashoffset: 0;"><path d="M336.35 182H306" style="fill: none; stroke-width: 0.901096; stroke: rgb(153, 153, 153); stroke-opacity: 1;" class="stroke-shape"/></g></g><g data-testid="svg-path"><path d="M372.16 126H352" style="fill: none; fill-opacity: 1; stroke-dasharray: 0.901096, 2.70329; stroke-dashoffset: 0;" class="fills"/><g class="strokes" style="fill: none; fill-opacity: 1; stroke-dasharray: 0.901096, 2.70329; stroke-dashoffset: 0;"><path d="M372.16 126H352" style="fill: none; stroke-width: 0.901096; stroke: rgb(153, 153, 153); stroke-opacity: 1;" class="stroke-shape"/></g></g><g data-testid="svg-path"><path d="M378 54v9" style="fill: none; fill-opacity: 1; stroke-dasharray: 0.901096, 2.70329; stroke-dashoffset: 0;" class="fills"/><g class="strokes" style="fill: none; fill-opacity: 1; stroke-dasharray: 0.901096, 2.70329; stroke-dashoffset: 0;"><path d="M378 54v9" style="fill: none; stroke-width: 0.901096; stroke: rgb(153, 153, 153); stroke-opacity: 1;" class="stroke-shape"/></g></g><g data-testid="svg-rect"><rect rx="0" ry="0" x="253.433" y="123.433" transform="rotate(15 259.807 129.807)" width="12.749" height="12.749" style="fill: none; fill-opacity: 1; stroke-dasharray: none; stroke-dashoffset: 0;" class="fills"/><g class="strokes" style="fill: none; fill-opacity: 1; stroke-dasharray: none; stroke-dashoffset: 0;"><rect rx="0" ry="0" x="253.433" y="123.433" transform="rotate(15 259.807 129.807)" width="12.749" height="12.749" style="fill: none; stroke-width: 1.67637; stroke: rgb(222, 222, 221); stroke-opacity: 1;" class="stroke-shape"/></g></g><g data-testid="svg-path"><path d="M333 54h-42V35" style="fill: none; fill-opacity: 1; stroke-dasharray: 0.893106, 2.67932; stroke-dashoffset: 0;" class="fills"/><g class="strokes" style="fill: none; fill-opacity: 1; stroke-dasharray: 0.893106, 2.67932; stroke-dashoffset: 0;"><path d="M333 54h-42V35" style="fill: none; stroke-width: 0.893106; stroke: rgb(153, 153, 153); stroke-opacity: 1;" class="stroke-shape"/></g></g><circle cx="265.998" cy="74.998" style="stroke: none; stroke-width: 1.182; stroke-dasharray: none; fill: rgb(222, 222, 221); fill-opacity: 1;" r="5.998" class="fills" data-testid="svg-ellipse"/><circle cx="377.998" cy="70.998" style="stroke: none; stroke-width: 1.182; stroke-dasharray: none; fill: rgb(222, 222, 221); fill-opacity: 1;" r="5.998" class="fills" data-testid="svg-ellipse"/><g data-testid="svg-path"><path d="M289 95h-23V83" style="fill: none; fill-opacity: 1; stroke-dasharray: 0.893106, 2.67932; stroke-dashoffset: 0;" class="fills"/><g class="strokes" style="fill: none; fill-opacity: 1; stroke-dasharray: 0.893106, 2.67932; stroke-dashoffset: 0;"><path d="M289 95h-23V83" style="fill: none; stroke-width: 0.893106; stroke: rgb(153, 153, 153); stroke-opacity: 1;" class="stroke-shape"/></g></g></g><g data-testid="dog" style="fill: rgb(0, 0, 0);"><g data-testid="svg-g" style="fill: rgb(0, 0, 0);"><g class="fills" data-testid="svg-path"><path d="M282 140.674h2.745v9.705H282Z" class="cls-1" style="stroke-width: 0px;"/></g><g class="fills" data-testid="svg-path"><path d="M294.576 146.08v4.299h-2.636v-3.87c0-1.083-.47-1.541-1.234-1.541-.848 0-1.499.525-1.499 1.776v3.635h-2.636v-7.518h2.51v.818c.596-.625 1.444-.944 2.385-.944 1.763 0 3.106 1.012 3.11 3.345Z" class="cls-1" style="stroke-width: 0px;"/></g><g class="fills" data-testid="svg-path"><path d="m295.63 149.728.789-1.801c.692.429 1.704.693 2.619.693.915 0 1.179-.193 1.179-.512 0-1.012-4.436.138-4.436-2.871 0-1.415 1.305-2.498 3.66-2.498 1.054 0 2.22.223 2.968.638l-.79 1.788a4.408 4.408 0 0 0-2.161-.554c-.886 0-1.205.248-1.205.525 0 1.041 4.424-.084 4.424 2.896 0 1.386-1.276 2.469-3.715 2.469-1.276 0-2.594-.319-3.332-.773Z" class="cls-1" style="stroke-width: 0px;"/></g><g class="fills" data-testid="svg-path"><path d="M308.999 150.077c-.458.289-1.138.428-1.83.428-1.927 0-3.052-.945-3.052-2.871v-2.523h-1.096v-1.969h1.096v-1.956h2.636v1.956h1.721v1.969h-1.721v2.497c0 .554.319.861.789.861.29 0 .584-.084.806-.235Z" class="cls-1" style="stroke-width: 0px;"/></g><g class="fills" data-testid="svg-path"><path d="M315.043 142.739v2.372a4.403 4.403 0 0 0-.596-.042c-1.066 0-1.8.541-1.8 1.859v3.455h-2.637v-7.518h2.511v.903c.541-.68 1.414-1.025 2.522-1.029Z" class="cls-1" style="stroke-width: 0px;"/></g><g class="fills" data-testid="svg-path"><path d="M324.06 142.865v7.518h-2.51v-.806c-.567.626-1.373.928-2.234.928-1.842 0-3.19-1.054-3.19-3.438v-4.202h2.636v3.774c0 1.167.458 1.624 1.247 1.624.789 0 1.415-.512 1.415-1.775v-3.619l2.636-.004Z" class="cls-1" style="stroke-width: 0px;"/></g><g class="fills" data-testid="svg-path"><path d="M325.277 146.609c0-2.258 1.788-3.87 4.311-3.87 1.704 0 3.01.764 3.522 2.065l-2.04 1.041c-.361-.705-.886-1.011-1.499-1.011-.915 0-1.637.638-1.637 1.775 0 1.138.722 1.801 1.637 1.801.609 0 1.138-.306 1.499-1.011l2.04 1.041c-.512 1.305-1.818 2.065-3.522 2.065-2.523 0-4.311-1.608-4.311-3.896Z" class="cls-1" style="stroke-width: 0px;"/></g><g class="fills" data-testid="svg-path"><path d="M339.423 150.077c-.458.289-1.138.428-1.83.428-1.927 0-3.052-.945-3.052-2.871v-2.523h-1.095v-1.969h1.095v-1.956h2.636v1.956h1.721v1.969h-1.721v2.497c0 .554.319.861.789.861.29 0 .584-.084.806-.235Z" class="cls-1" style="stroke-width: 0px;"/></g><g class="fills" data-testid="svg-path"><path d="M340.56 140.674h2.746v7.53h4.63v2.179h-7.376v-9.709Z" class="cls-1" style="stroke-width: 0px;"/></g><g class="fills" data-testid="svg-path"><path d="M356.049 146.206v4.173h-2.455v-.97c-.374.722-1.125 1.096-2.221 1.096-1.8 0-2.799-1.012-2.799-2.317 0-1.386 1.011-2.246 3.341-2.246h1.498c-.042-.764-.554-1.192-1.595-1.192-.722 0-1.523.248-2.04.65l-.885-1.788c.86-.566 2.136-.873 3.316-.873 2.438 0 3.84 1.083 3.84 3.467Zm-2.636 1.763v-.65h-1.137c-.848 0-1.15.306-1.15.764 0 .457.361.764.986.764.584 0 1.096-.277 1.301-.878Z" class="cls-1" style="stroke-width: 0px;"/></g><g class="fills" data-testid="svg-path"><path d="M366.132 146.609c0 2.397-1.65 3.896-3.69 3.896-.986 0-1.721-.277-2.22-.873v.747h-2.51v-10.288h2.636v3.425c.512-.525 1.221-.777 2.094-.777 2.04 0 3.69 1.482 3.69 3.87Zm-2.661 0c0-1.137-.693-1.775-1.583-1.775s-1.582.638-1.582 1.775c0 1.138.692 1.801 1.582 1.801.89 0 1.583-.65 1.583-1.801Z" class="cls-1" style="stroke-width: 0px;"/></g></g><g data-testid="svg-g" style="fill: rgb(0, 0, 0);"><g class="fills" data-testid="svg-ellipse"><ellipse cx="312.151" cy="101.112" rx="1.645" ry="2.342" class="cls-1" style="stroke-width: 0px;"/></g><g class="fills" data-testid="svg-path"><path d="M312.151 103.66c-1.024 0-1.855-1.142-1.855-2.548 0-1.406.831-2.548 1.855-2.548s1.856 1.142 1.856 2.548c0 1.406-.832 2.548-1.856 2.548Zm0-4.681c-.793 0-1.44.958-1.44 2.133s.647 2.132 1.44 2.132c.794 0 1.44-.957 1.44-2.132 0-1.175-.646-2.133-1.44-2.133Z" class="cls-1" style="stroke-width: 0px;"/></g></g><g data-testid="svg-g" style="fill: rgb(0, 0, 0);"><g class="fills" data-testid="svg-ellipse"><ellipse cx="327.544" cy="101.112" rx="1.645" ry="2.342" class="cls-1" style="stroke-width: 0px;"/></g><g class="fills" data-testid="svg-path"><path d="M327.544 103.66c-1.025 0-1.856-1.142-1.856-2.548 0-1.406.831-2.548 1.856-2.548 1.024 0 1.855 1.142 1.855 2.548 0 1.406-.831 2.548-1.855 2.548Zm0-4.681c-.794 0-1.44.958-1.44 2.133s.646 2.132 1.44 2.132c.793 0 1.439-.957 1.439-2.132 0-1.175-.646-2.133-1.439-2.133Z" class="cls-1" style="stroke-width: 0px;"/></g></g><g class="fills" data-testid="svg-path"><path d="m349.833 85.816 2.04-.915a.785.785 0 0 1 1.087.478l.772 2.313a.99.99 0 0 1-.524 1.197l-2.04.915a.787.787 0 0 1-1.088-.479l-.772-2.313a.99.99 0 0 1 .525-1.196Z" class="cls-1" style="stroke-width: 0px;"/></g><g class="fills" data-testid="svg-path"><path d="M348.108 84.414c-.504.08-3.812.256-4.345.231-.059 0-.386-.399-.378-.462.072-.541.852-3.82 1.025-4.311.021-.054.44-.08.491-.025.432.457 2.959 3.559 3.324 4.076.042.059-.059.478-.117.491Z" class="cls-1" style="stroke-width: 0px;"/></g><g class="fills" data-testid="svg-circle"><circle cx="350.538" cy="80.023" class="cls-1" style="stroke-width: 0px;" r="2.023"/></g><g data-testid="svg-g" style="fill: rgb(0, 0, 0);"><g class="fills" data-testid="svg-path"><path d="M320.664 135.146c-.466 0-.932-.059-1.348-.185-.411-.122-.764-.298-1.024-.516l-22.419-.806a1.34 1.34 0 0 1-.944-.432 1.305 1.305 0 0 1-.353-.949 1.348 1.348 0 0 1 1.398-1.285l4.89.177 2.586 1.074 3.53-.856 12.16.437.03.079c.125.361.39.663.743.844.499.26 1.12.248 1.611-.029a1.53 1.53 0 0 0 .668-.735l.029-.071 22.827-1.616c.705-.047 1.326.478 1.376 1.175v.029a1.272 1.272 0 0 1-1.187 1.36l-22.101 1.566a2.986 2.986 0 0 1-.936.495c-.47.156-.999.235-1.536.244Z" class="cls-2" style="stroke-width: 0px; fill: rgb(69, 75, 154); fill-opacity: 1;"/></g><g class="fills" data-testid="svg-path"><path d="m319.656 133.656-22.662-.689a.44.44 0 1 1 .025-.881l22.625.688 23.926-1.318-.642-9.226a.441.441 0 1 1 .881-.059l.701 10.12-24.854 1.365Z" class="cls-2" style="stroke-width: 0px; fill: rgb(69, 75, 154); fill-opacity: 1;"/></g><g data-testid="svg-g" style="fill: rgb(0, 0, 0);"><g class="fills" data-testid="svg-path"><path d="M324.551 130.142a.43.43 0 0 1-.365-.197.445.445 0 0 1 .121-.613c.168-.113 4.198-2.8 8.438-4.231 4.268-1.444 8.059-1.15 8.218-1.138a.438.438 0 0 1 .403.475.439.439 0 0 1-.474.403c-.038 0-3.778-.286-7.862 1.095-4.122 1.394-8.185 4.101-8.227 4.127a.487.487 0 0 1-.252.079Z" class="cls-2" style="stroke-width: 0px; fill: rgb(69, 75, 154); fill-opacity: 1;"/></g></g><g data-testid="svg-g" style="fill: rgb(0, 0, 0);"><g class="fills" data-testid="svg-path"><path d="M328.236 130.453a.444.444 0 0 1-.218-.827c.113-.063 2.867-1.591 6.683-2.216 3.811-.626 7.043-.08 7.177-.055.24.042.399.269.361.512a.437.437 0 0 1-.507.361c-.034-.004-3.224-.545-6.885.059-3.656.6-6.367 2.103-6.392 2.116a.41.41 0 0 1-.219.05Z" class="cls-2" style="stroke-width: 0px; fill: rgb(69, 75, 154); fill-opacity: 1;"/></g></g><g data-testid="svg-g" style="fill: rgb(0, 0, 0);"><g class="fills" data-testid="svg-path"><path d="M301.342 125.894s-.016 0 0 0Zc-1.469-.075-2.455-.046-2.464-.046a.433.433 0 0 1-.453-.428.439.439 0 0 1 .428-.453c.042 0 1.033-.034 2.515.046a.44.44 0 0 1 .415.466.435.435 0 0 1-.441.415Z" class="cls-2" style="stroke-width: 0px; fill: rgb(69, 75, 154); fill-opacity: 1;"/></g></g><g data-testid="svg-g" style="fill: rgb(0, 0, 0);"><g class="fills" data-testid="svg-path"><path d="M316.588 130.852a.424.424 0 0 1-.231-.067 43.69 43.69 0 0 0-5.054-2.607.443.443 0 0 1-.231-.579.442.442 0 0 1 .58-.231 44.098 44.098 0 0 1 5.167 2.669c.206.13.269.399.143.609a.43.43 0 0 1-.374.206Z" class="cls-2" style="stroke-width: 0px; fill: rgb(69, 75, 154); fill-opacity: 1;"/></g></g><g data-testid="svg-g" style="fill: rgb(0, 0, 0);"><g class="fills" data-testid="svg-path"><path d="M299.273 129.538a.443.443 0 0 1-.092-.873c.025-.004.634-.13 1.628-.235a.447.447 0 0 1 .487.394.442.442 0 0 1-.394.487c-.949.101-1.537.223-1.629.227Zc.059.004.025.004 0 0Z" class="cls-2" style="stroke-width: 0px; fill: rgb(69, 75, 154); fill-opacity: 1;"/></g></g><g data-testid="svg-g" style="fill: rgb(0, 0, 0);"><g class="fills" data-testid="svg-path"><path d="M312.915 131.288a.44.44 0 0 1-.201-.05c-.013-.009-1.264-.647-3.182-1.205a.442.442 0 0 1 .243-.848c2.007.584 3.287 1.239 3.342 1.268a.442.442 0 0 1-.202.835Z" class="cls-2" style="stroke-width: 0px; fill: rgb(69, 75, 154); fill-opacity: 1;"/></g></g><g class="fills" data-testid="svg-path"><path d="M320.408 129.311a.444.444 0 0 1-.37-.197.445.445 0 0 1 .122-.613c.26-.172 6.389-4.227 10.414-5.738 4.059-1.524 11.086-1.326 11.384-1.318a.44.44 0 1 1-.025.881c-.071 0-7.153-.201-11.048 1.264-3.929 1.473-10.171 5.604-10.234 5.646a.437.437 0 0 1-.243.075Z" class="cls-2" style="stroke-width: 0px; fill: rgb(69, 75, 154); fill-opacity: 1;"/></g><g class="fills" data-testid="svg-path"><path d="M320.324 129.294a.435.435 0 0 1-.235-.067c-.038-.021-3.677-2.317-7.157-3.987a.442.442 0 0 1-.206-.588.442.442 0 0 1 .588-.206c3.526 1.696 7.211 4.017 7.249 4.038.206.13.269.403.139.609a.425.425 0 0 1-.378.201Z" class="cls-2" style="stroke-width: 0px; fill: rgb(69, 75, 154); fill-opacity: 1;"/></g><g class="fills" data-testid="svg-path"><path d="M298.715 123.061a.442.442 0 0 1-.03-.882c.021 0 1.94-.125 4.328-.058a.44.44 0 1 1-.025.881c-2.347-.063-4.227.059-4.273.059Zc.017 0 .004 0 0 0Z" class="cls-2" style="stroke-width: 0px; fill: rgb(69, 75, 154); fill-opacity: 1;"/></g><g data-testid="svg-g" style="fill: rgb(0, 0, 0);"><g class="fills" data-testid="svg-line"><path d="m296.969 132.665.335-9.688" class="cls-2" style="stroke-width: 0px; fill: rgb(69, 75, 154); fill-opacity: 1;"/></g><g class="fills" data-testid="svg-path"><path d="M296.969 133.106s-.009 0 0 0Za.444.444 0 0 1-.441-.458l.336-9.688a.44.44 0 1 1 .881.034l-.336 9.688a.44.44 0 0 1-.44.424Z" class="cls-2" style="stroke-width: 0px; fill: rgb(69, 75, 154); fill-opacity: 1;"/></g></g><g data-testid="svg-g" style="fill: rgb(0, 0, 0);"><g class="fills" data-testid="svg-path"><path d="M320.198 114.04c-4.139 0-8.152-1.859-10.465-4.848-5.662-7.316-4.789-21.034-2.984-22.684 1.998-1.825 7.203-6.073 12.379-6.078h.004c5.503 0 10.8 4.441 12.29 5.806 1.851 1.691 3.791 15.585-1.011 22.927-1.998 3.056-5.818 4.877-10.213 4.877Zm-1.07-32.728Zc-4.865 0-9.861 4.088-11.783 5.847-.504.462-1.276 3.686-1.02 8.467.168 3.097.923 8.911 4.105 13.025 2.154 2.779 5.898 4.508 9.768 4.508 4.097 0 7.64-1.675 9.474-4.479 4.877-7.455 2.317-20.732 1.154-21.794-5.667-5.171-10.385-5.574-11.698-5.574Z" class="cls-2" style="stroke-width: 0px; fill: rgb(69, 75, 154); fill-opacity: 1;"/></g></g><g data-testid="svg-g" style="fill: rgb(0, 0, 0);"><g class="fills" data-testid="svg-path"><path d="m345.753 95.856 2.195.076" class="cls-2" style="stroke-width: 0px; fill: rgb(69, 75, 154); fill-opacity: 1;"/></g><g class="fills" data-testid="svg-rect"><rect width=".881" height="2.2" class="cls-2" x="346.412" transform="rotate(-87.98 346.853 95.897)" style="stroke-width: 0px; fill: rgb(69, 75, 154); fill-opacity: 1;" ry="0" rx="0" y="94.797"/></g></g><g data-testid="svg-g" style="fill: rgb(0, 0, 0);"><g class="fills" data-testid="svg-path"><path d="m344.917 99.802 2.213.08" class="cls-2" style="stroke-width: 0px; fill: rgb(69, 75, 154); fill-opacity: 1;"/></g><g class="fills" data-testid="svg-rect"><rect width=".881" height="2.212" class="cls-2" x="345.584" transform="rotate(-87.93 346.024 99.84)" style="stroke-width: 0px; fill: rgb(69, 75, 154); fill-opacity: 1;" ry="0" rx="0" y="98.734"/></g></g><g data-testid="svg-g" style="fill: rgb(0, 0, 0);"><g class="fills" data-testid="svg-path"><path d="m344.195 101.985 2.368.105" class="cls-2" style="stroke-width: 0px; fill: rgb(69, 75, 154); fill-opacity: 1;"/></g><g class="fills" data-testid="svg-rect"><rect width=".881" height="2.372" class="cls-2" x="344.946" transform="rotate(-87.47 345.387 102.043)" style="stroke-width: 0px; fill: rgb(69, 75, 154); fill-opacity: 1;" ry="0" rx="0" y="100.857"/></g></g><g data-testid="svg-g" style="fill: rgb(0, 0, 0);"><g class="fills" data-testid="svg-path"><path d="m345.169 98.06 2.212.08" class="cls-2" style="stroke-width: 0px; fill: rgb(69, 75, 154); fill-opacity: 1;"/></g><g class="fills" data-testid="svg-rect"><rect width=".881" height="2.212" class="cls-2" x="345.829" transform="rotate(-87.93 346.27 98.098)" style="stroke-width: 0px; fill: rgb(69, 75, 154); fill-opacity: 1;" ry="0" rx="0" y="96.992"/></g></g><g data-testid="svg-g" style="fill: rgb(0, 0, 0);"><g class="fills" data-testid="svg-path"><path d="M332.073 105.544h-6.876c-1.41 0-2.51-1.061-2.741-2.644l-.768-5.327c-.088-.625.101-1.246.542-1.754a2.935 2.935 0 0 1 2.199-.987h9.189c.915 0 1.876.466 2.396 1.155.374.499.492 1.078.332 1.632l-1.54 5.327c-.622 2.149-1.826 2.598-2.733 2.598Zm-7.648-10.036c-.638 0-1.285.29-1.688.751-.218.252-.461.668-.381 1.214l.768 5.326c.147 1.029.848 2.065 2.069 2.065h6.876c.974 0 1.675-.709 2.082-2.111l1.54-5.327c.126-.44-.05-.81-.222-1.036-.391-.521-1.155-.886-1.856-.886l-9.188.004Z" class="cls-2" style="stroke-width: 0px; fill: rgb(69, 75, 154); fill-opacity: 1;"/></g></g><g data-testid="svg-g" style="fill: rgb(0, 0, 0);"><g class="fills" data-testid="svg-path"><path d="M314.145 105.544h-6.876c-.902 0-2.111-.449-2.728-2.598L303 97.619c-.159-.554-.041-1.133.332-1.632.521-.693 1.482-1.155 2.397-1.155h9.188c.844 0 1.663.37 2.2.987.441.508.63 1.129.541 1.754l-.768 5.327c-.226 1.583-1.33 2.644-2.745 2.644Zm-8.416-10.036c-.701 0-1.465.365-1.855.886-.173.231-.353.596-.223 1.037l1.541 5.326c.403 1.402 1.104 2.112 2.082 2.112h6.875c1.226 0 1.923-1.037 2.07-2.066l.768-5.326c.08-.546-.164-.961-.382-1.213-.403-.466-1.05-.752-1.688-.752l-9.188-.004Z" class="cls-2" style="stroke-width: 0px; fill: rgb(69, 75, 154); fill-opacity: 1;"/></g></g><g data-testid="svg-g" style="fill: rgb(0, 0, 0);"><g class="fills" data-testid="svg-path"><path d="m316.941 100.461-.172-.478c.058-.021 1.46-.517 2.984-.517s2.926.496 2.984.517l-.172.478s-1.381-.487-2.812-.487c-1.431 0-2.8.483-2.812.487Z" class="cls-2" style="stroke-width: 0px; fill: rgb(69, 75, 154); fill-opacity: 1;"/></g></g><g data-testid="svg-g" style="fill: rgb(0, 0, 0);"><g class="fills" data-testid="svg-path"><path d="M327.661 92.88c-1.263 0-1.847-.432-2.12-.835-.163-.243-.268-.596-.151-.793.256-.437.575-.722.953-.857.395-.142.865-.046 1.259.261.382.273 1.172 1.167 1.34 1.57a.429.429 0 0 1-.336.587 7.364 7.364 0 0 1-.945.067Zm.655-.394Zm-2.283-.978a.712.712 0 0 0 .235.336c.256.209.78.428 1.855.34-.252-.336-.68-.811-.919-.983-.172-.13-.42-.239-.63-.163-.197.071-.378.226-.541.47Zm-.055.088Z" class="cls-2" style="stroke-width: 0px; fill: rgb(69, 75, 154); fill-opacity: 1;"/></g></g><g data-testid="svg-g" style="fill: rgb(0, 0, 0);"><g class="fills" data-testid="svg-path"><path d="M312.042 92.88c-.281 0-.596-.021-.944-.067a.415.415 0 0 1-.311-.21.425.425 0 0 1-.025-.377c.168-.403.957-1.297 1.347-1.579.386-.298.857-.39 1.251-.252.374.131.697.42.949.857.117.197.012.55-.151.793-.269.403-.852.835-2.116.835Zm-.457-.696c1.074.088 1.599-.131 1.855-.34a.7.7 0 0 0 .235-.336c-.16-.244-.34-.403-.537-.47-.21-.076-.458.033-.622.155-.247.176-.675.651-.931.991Z" class="cls-2" style="stroke-width: 0px; fill: rgb(69, 75, 154); fill-opacity: 1;"/></g></g><g data-testid="svg-g" style="fill: rgb(0, 0, 0);"><g class="fills" data-testid="svg-path"><path d="M319.879 111.413s-.021 0 0 0Zc-2.703-.021-4.101-2.662-4.16-2.775l-.789-1.524 1.276 1.146s.89.789 1.918.81c.932.013 1.423-1.368 1.428-1.381l.293-.831.294.831s.5 1.381 1.411 1.381h.016c1.037-.021 1.91-.801 1.919-.81l1.259-1.141-.772 1.515c-.059.113-1.444 2.775-4.093 2.779Zm-2.72-1.893c.604.621 1.515 1.259 2.691 1.267 1.187.009 2.103-.642 2.711-1.276a3.035 3.035 0 0 1-.978.185c-.848.025-1.423-.655-1.733-1.184-.311.529-.882 1.201-1.734 1.184a3.343 3.343 0 0 1-.957-.176Z" class="cls-2" style="stroke-width: 0px; fill: rgb(69, 75, 154); fill-opacity: 1;"/></g></g><g data-testid="svg-g" style="fill: rgb(0, 0, 0);"><g class="fills" data-testid="svg-path"><path d="M320.685 133.492c-.357 0-.714-.084-1.037-.248-.684-.352-1.116-1.028-1.129-1.763 0-.243.189-.445.432-.449.235 0 .445.189.449.433.009.411.256.789.651.994.407.21.911.202 1.31-.021.386-.214.621-.604.613-1.015 0-.244.188-.445.432-.45a.441.441 0 0 1 .449.433c.013.734-.395 1.427-1.066 1.801-.34.188-.726.285-1.104.285Z" class="cls-2" style="stroke-width: 0px; fill: rgb(69, 75, 154); fill-opacity: 1;"/></g></g><g data-testid="svg-g" style="fill: rgb(0, 0, 0);"><g class="fills" data-testid="svg-path"><path d="M334.835 110.632c3.408-2.33 6.46-3.95 8.781-4.706.168-.755.344-1.515.521-2.262-2.254.529-5.604 1.948-10.461 5.268-.978.667-2.023.776-2.904.676a14.336 14.336 0 0 0 .906-1.57c.101.021.181.038.223.05 1.125.344 2.535-.159 4.315-1.544 3.765-2.93 8.869-9.697 8.739-12.346-.084-1.708-1.582-3.433-3.165-5.259-.571-.659-1.158-1.335-1.67-2.007-.638-.835-1.184-1.708-1.663-2.48-.923-1.486-1.653-2.662-2.728-3.102a3.635 3.635 0 0 0-1.293-.277c-2.25-.068-3.975 1.914-4.55 2.665-2.38-1.834-6.506-4.433-10.758-4.433h-.005c-3.815 0-7.597 2.179-10.401 4.332-.642-.81-2.326-2.627-4.471-2.569-.44.013-.877.105-1.292.277-.886.361-1.474 1.306-2.158 2.393-.42.672-.898 1.431-1.478 2.116-.424.499-.885 1.015-1.33 1.515-2.137 2.397-4.152 4.655-4.261 6.825-.13 2.645 4.974 9.411 8.74 12.341 1.779 1.385 3.19 1.889 4.315 1.545.201-.063.743-.181 1.347-.315.353.604.73 1.171 1.129 1.696.386.508.823.99 1.302 1.444l-.483.6c-6.624 8.236-13.374 17.332-9.596 21.026.869.852 1.927 1.284 3.098 1.284.386 0 .785-.046 1.192-.143 3.984-.923 8.488-6.422 10.041-10.783a1.027 1.027 0 0 0-.626-1.314 1.024 1.024 0 0 0-1.314.625c-1.343 3.774-5.377 8.731-8.567 9.466-.974.227-1.733.029-2.388-.609-.613-.6-1.146-2.413 2.149-7.862 2.292-3.786 5.49-7.765 7.61-10.401.424-.525.798-.991 1.104-1.381l.008-.009a11.297 11.297 0 0 1-2.72-2.489 16.623 16.623 0 0 1-1.939-3.257l-.197.042c-.84.185-1.448.315-1.759.411-.239.076-1.028-.096-2.447-1.2-3.753-2.922-8.018-9.172-7.946-10.616.071-1.444 2.019-3.627 3.74-5.558.453-.508.923-1.032 1.36-1.549.68-.797 1.2-1.624 1.658-2.359.39-.621.919-1.469 1.192-1.582.189-.076.374-.118.567-.122 1.129-.029 2.304 1.155 2.82 1.818l.126 1.691c2.183-1.956 7.09-5.767 11.871-5.771 4.941 0 9.902 3.773 12.001 5.687.092.084.189.219.285.391l.147-2.002c.504-.643 1.696-1.847 2.821-1.818.193.004.378.046.567.122.457.189 1.121 1.255 1.759 2.283.503.81 1.074 1.73 1.775 2.645a44.12 44.12 0 0 0 1.751 2.103c1.284 1.481 2.615 3.014 2.665 4.013.071 1.444-4.193 7.694-7.95 10.615-1.419 1.104-2.204 1.276-2.447 1.201-.156-.046-.408-.101-.97-.21a14.977 14.977 0 0 1-1.494 3.01 9.144 9.144 0 0 1-1.889 2.077l.436.168c1.05.403 3.766 1.163 6.259-.516Z" class="cls-2" style="stroke-width: 0px; fill: rgb(69, 75, 154); fill-opacity: 1;"/></g><g class="fills" data-testid="svg-path"><path d="M333.059 120.429c1.877-.873 5.239-2.514 8.484-4.504.155-.81.344-1.759.554-2.804-3.35 2.212-7.426 4.307-10.343 5.642a1.41 1.41 0 0 0-.806 1.515l.122.751c.092.563.621.941 1.183.852.563-.092.941-.621.852-1.183l-.046-.269Z" class="cls-2" style="stroke-width: 0px; fill: rgb(69, 75, 154); fill-opacity: 1;"/></g><g class="fills" data-testid="svg-path"><path d="M349.69 105.2c-.504-.873-1.318-1.46-2.351-1.696a3.271 3.271 0 0 0-.348-.062l-.588 2.006c.168.013.332.029.479.063.483.109.806.336 1.024.718.13.222.277.592.08 1.209-.369 1.15-1.599 2.464-3.278 3.803l-.953 3.253c2.98-2.04 5.515-4.307 6.195-6.431.328-1.02.235-2.011-.26-2.863Z" class="cls-2" style="stroke-width: 0px; fill: rgb(69, 75, 154); fill-opacity: 1;"/></g></g><g data-testid="svg-g" style="fill: rgb(0, 0, 0);"><g class="fills" data-testid="svg-path"><path d="m340.04 119.128.096-.525c.152-.827 3.719-20.27 6.062-24.912l.126-.252 4.466.176-7.472 25.492Zm6.821-24.783c-2.078 4.509-5.176 20.762-5.759 23.897l1.557-.012 6.968-23.775-2.766-.11Z" class="cls-2" style="stroke-width: 0px; fill: rgb(69, 75, 154); fill-opacity: 1;"/></g></g></g><g class="fills" data-testid="svg-path"><path d="M318.997 104.046h1.7c1.533 0 1.201.818 1.201 1.834s-.701 1.835-1.57 1.835h-.965c-.869 0-1.57-.819-1.57-1.835s-.332-1.834 1.204-1.834Z" class="cls-1" style="stroke-width: 0px;"/></g></g></g><g data-testid="shapes" style="fill: rgb(0, 0, 0);"><g data-testid="svg-g" style="fill: rgb(0, 0, 0);"><g class="fills" data-testid="svg-path"><path d="m401.281 14.213 4.565-2.047c.996-.442 2.085.028 2.433 1.07l1.728 5.176c.347 1.033-.179 2.235-1.174 2.676l-4.565 2.048c-.996.441-2.085-.028-2.433-1.071l-1.728-5.175c-.347-1.033.179-2.235 1.174-2.677Z" class="cls-1" style="stroke-width: 0px; fill: rgb(51, 56, 144); fill-opacity: 1;"/></g></g></g><g data-testid="shapes" style="fill: rgb(0, 0, 0);"><g data-testid="svg-g" style="fill: rgb(0, 0, 0);"><g class="fills" data-testid="svg-circle"><circle cx="406.245" cy="211.245" transform="rotate(-100 406.245 211.244)" class="cls-1" style="stroke-width: 0px; fill: rgb(51, 56, 144); fill-opacity: 1;" r="4.527"/></g></g></g></g></g></g></svg>