<?xml version="1.0" encoding="UTF-8"?><svg id="Layer_2" xmlns="http://www.w3.org/2000/svg" viewBox="0 0 420.57 74.47"><defs><style>.cls-1{fill:#3b3fb6;}</style></defs><g id="svg1"><path d="M119.77,20.68h9.82v34.71h-9.82V20.68Z"/><path d="M164.73,40.02v15.37h-9.42v-13.83c0-3.87-1.69-5.5-4.41-5.5-3.02,0-5.35,1.88-5.35,6.35v12.99h-9.42v-26.87h8.97v2.93c2.13-2.23,5.16-3.37,8.53-3.37,6.3,0,11.11,3.62,11.11,11.95Z"/><path d="M168.5,53.06l2.83-6.45c2.48,1.54,6.1,2.48,9.37,2.48s4.21-.69,4.21-1.83c0-3.62-15.87.5-15.87-10.26,0-5.06,4.66-8.92,13.09-8.92,3.77,0,7.93.79,10.61,2.28l-2.83,6.4c-2.68-1.49-5.36-1.98-7.74-1.98-3.17,0-4.31.89-4.31,1.88,0,3.72,15.82-.3,15.82,10.36,0,4.96-4.56,8.82-13.29,8.82-4.56,0-9.27-1.14-11.9-2.78Z"/><path d="M216.3,54.3c-1.64,1.04-4.07,1.54-6.54,1.54-6.89,0-10.91-3.37-10.91-10.26v-9.02h-3.92v-7.04h3.92v-6.99h9.42v6.99h6.15v7.04h-6.15v8.92c0,1.98,1.14,3.07,2.83,3.07,1.04,0,2.08-.3,2.88-.84l2.33,6.59Z"/><path d="M237.92,28.07v8.48c-.84-.1-1.44-.15-2.13-.15-3.82,0-6.45,1.93-6.45,6.64v12.34h-9.42v-26.87h8.97v3.22c1.93-2.43,5.06-3.67,9.02-3.67Z"/><path d="M270.14,28.51v26.87h-8.97v-2.88c-2.03,2.23-4.91,3.32-7.98,3.32-6.59,0-11.4-3.77-11.4-12.3v-15.02h9.42v13.49c0,4.17,1.64,5.8,4.46,5.8s5.06-1.83,5.06-6.35v-12.94h9.42Z"/><path d="M274.51,41.9c0-8.08,6.4-13.83,15.42-13.83,6.1,0,10.76,2.73,12.59,7.39l-7.29,3.72c-1.29-2.53-3.17-3.62-5.36-3.62-3.27,0-5.85,2.28-5.85,6.35s2.58,6.44,5.85,6.44c2.18,0,4.07-1.09,5.36-3.62l7.29,3.72c-1.83,4.66-6.49,7.39-12.59,7.39-9.02,0-15.42-5.75-15.42-13.93Z"/><path d="M325.08,54.3c-1.64,1.04-4.07,1.54-6.54,1.54-6.89,0-10.91-3.37-10.91-10.26v-9.02h-3.92v-7.04h3.92v-6.99h9.42v6.99h6.15v7.04h-6.15v8.92c0,1.98,1.14,3.07,2.83,3.07,1.04,0,2.08-.3,2.88-.84l2.33,6.59Z"/><path d="M329.14,20.68h9.82v26.92h16.56v7.78h-26.38V20.68Z"/><path d="M384.52,40.46v14.92h-8.77v-3.47c-1.34,2.58-4.02,3.92-7.93,3.92-6.45,0-10.01-3.62-10.01-8.28,0-4.96,3.62-8.03,11.95-8.03h5.36c-.15-2.73-1.98-4.26-5.7-4.26-2.58,0-5.45.89-7.29,2.33l-3.17-6.4c3.07-2.03,7.63-3.12,11.85-3.12,8.73,0,13.73,3.87,13.73,12.39ZM375.1,46.76v-2.33h-4.07c-3.03,0-4.12,1.09-4.12,2.73s1.29,2.73,3.52,2.73c2.08,0,3.92-.99,4.66-3.12Z"/><path d="M420.57,41.9c0,8.58-5.9,13.93-13.19,13.93-3.52,0-6.15-.99-7.93-3.12v2.68h-8.97V18.6h9.42v12.25c1.83-1.88,4.36-2.78,7.49-2.78,7.29,0,13.19,5.3,13.19,13.83ZM411.05,41.9c0-4.07-2.48-6.35-5.65-6.35s-5.65,2.28-5.65,6.35,2.48,6.44,5.65,6.44,5.65-2.33,5.65-6.44Z"/><path class="cls-1" d="M38.13,39.98c-2.12,0-3.84,2.37-3.84,5.28s1.72,5.28,3.84,5.28,3.84-2.37,3.84-5.28-1.72-5.28-3.84-5.28Z"/><path class="cls-1" d="M99.49,20.05c-1.18-1.36-2.4-2.77-3.46-4.15-1.32-1.73-2.45-3.54-3.44-5.13-1.91-3.08-3.42-5.51-5.65-6.42-.86-.35-1.76-.55-2.67-.57-4.32-.12-7.71,3.41-9.13,5.15-5.27-3.92-13.73-8.93-22.57-8.93-8.18,0-16.25,4.63-21.82,8.74-1.5-1.8-4.81-5.07-8.97-4.96-.91.03-1.81.22-2.67.57-1.83.75-3.05,2.7-4.46,4.96-.87,1.39-1.86,2.97-3.06,4.38-.88,1.03-1.83,2.1-2.76,3.13C4.4,21.78.23,26.46,0,30.95c-.27,5.48,10.3,19.48,18.09,25.55,3.68,2.87,6.6,3.91,8.93,3.2.26-.08.78-.2,1.43-.35.82,1.45,1.73,2.84,2.73,4.13,5.25,6.78,14.29,10.99,23.6,10.99,9.93,0,18.6-4.19,23.19-11.21.7-1.07,1.33-2.21,1.91-3.39.2.02.4.04.62.04,2.06,0,4.51-1.13,7.45-3.42,7.79-6.07,18.36-20.07,18.09-25.55-.18-3.54-3.27-7.11-6.55-10.89ZM52.57,4.27h0c2.72,0,12.49.84,24.22,11.54,1.15,1.05,2.96,7.9,3.43,16.45h-16.69c-1.74,0-3.45.76-4.55,2.04-.91,1.05-1.31,2.34-1.12,3.63l.66,4.55c-1.17-.29-2.87-.62-4.65-.62-1.98,0-3.86.41-5.02.72l.67-4.64c.19-1.29-.21-2.58-1.12-3.63-1.11-1.28-2.81-2.04-4.55-2.04h-17.85c-.28-8.99,1.19-14.99,2.18-15.89,3.98-3.64,14.32-12.09,24.39-12.1ZM28.16,53.04h-.15c-2.02,0-3.47-1.47-4.31-4.37l-3.19-11.03c-.26-.91.11-1.67.46-2.15.7-.93,1.97-1.61,3.23-1.79.33,6.24,1.5,13.14,3.95,19.33ZM25.77,55.61c-.49.15-2.13-.2-5.07-2.49-7.77-6.05-16.6-18.98-16.45-21.98.15-2.99,4.18-7.51,7.74-11.5.94-1.05,1.91-2.14,2.82-3.21,1.41-1.65,2.48-3.37,3.43-4.88.81-1.28,1.91-3.04,2.47-3.28.39-.16.77-.24,1.18-.25.03,0,.06,0,.09,0,2.32,0,4.69,2.41,5.75,3.76l.17,2.36c-.35.31-.67.61-.96.88-1.75,1.6-3.07,8.66-2.79,17.28-1.68.19-3.34,1.09-4.29,2.35-.78,1.03-1.02,2.23-.69,3.38l3.19,11.03c1.29,4.45,3.78,5.38,5.65,5.38h.73c.06.14.13.28.2.43-1.49.33-2.58.57-3.16.75ZM26.06,33.9c0-.08,0-.16-.01-.24h17.79c1.32,0,2.66.6,3.49,1.56.45.52.96,1.38.79,2.51l-1.59,11.03c-.31,2.13-1.75,4.27-4.29,4.27h-12.13c-2.92-7.02-3.81-14.52-4.06-19.13ZM74.4,60.92c-3.8,5.81-11.13,9.27-19.61,9.27-8.02,0-15.76-3.58-20.22-9.33-1.54-1.99-2.79-4.17-3.83-6.43h11.52c2.92,0,5.2-2.2,5.67-5.47l.76-5.25c1-.29,3.06-.81,5.18-.81,1.89,0,3.73.41,4.82.7l.77,5.35c.47,3.27,2.75,5.47,5.67,5.47h12.44c-.83,2.31-1.87,4.5-3.17,6.49ZM65.13,53.04c-2.53,0-3.98-2.15-4.29-4.27l-.83-5.74.03-.09s-.02,0-.05-.02l-.75-5.18c-.16-1.13.34-1.99.79-2.51.83-.96,2.17-1.56,3.49-1.56h16.75c.23,6.2-.28,13.15-2.25,19.37h-12.91ZM82.14,33.66h.42c1.45,0,3.03.75,3.84,1.83.36.48.73,1.23.46,2.15l-3.19,11.03c-.76,2.63-2.03,4.07-3.77,4.32,1.82-6.16,2.4-13.06,2.23-19.32ZM85.32,53.12c-2.94,2.29-4.57,2.64-5.06,2.49-.23-.07-.56-.15-1.13-.26.11-.3.23-.61.33-.92,1.86-.03,4.3-1,5.57-5.38l3.19-11.03c.33-1.15.09-2.35-.69-3.38-1.08-1.43-3.07-2.39-4.96-2.39h-.47c-.39-8.73-2.2-15.94-3.99-17.72l.2-2.75c1.08-1.37,3.52-3.83,5.84-3.76.4.01.79.09,1.17.25.95.39,2.32,2.59,3.64,4.73,1.04,1.68,2.23,3.58,3.68,5.48,1.14,1.49,2.4,2.94,3.62,4.35,2.66,3.07,5.41,6.24,5.51,8.31.15,2.99-8.68,15.92-16.45,21.98Z"/><path class="cls-1" d="M70,39.98c-2.12,0-3.84,2.37-3.84,5.28s1.72,5.28,3.84,5.28,3.84-2.37,3.84-5.28-1.72-5.28-3.84-5.28Z"/><path class="cls-1" d="M61.6,60.06s-1.84,1.64-3.97,1.68c-.01,0-.03,0-.04,0-1.74,0-2.75-2.42-2.9-2.8h.37c1.8,0,3.25-1.7,3.25-3.8s.68-3.8-2.49-3.8h-3.52c-3.17,0-2.49,1.7-2.49,3.8s1.45,3.8,3.25,3.8h.37c-.15.38-1.15,2.8-2.9,2.8-.01,0-.03,0-.04,0-2.13-.04-3.95-1.66-3.97-1.68l-2.64-2.37,1.63,3.15c.12.23,3.01,5.69,8.54,5.74.02,0,.05,0,.07,0,5.49,0,8.36-5.51,8.48-5.74l1.58-3.1-2.59,2.33ZM54.07,65.29c-2.44-.02-4.32-1.34-5.57-2.62.6.21,1.27.36,1.98.37,1.76.05,2.94-1.36,3.59-2.45.65,1.09,1.85,2.5,3.59,2.45.72-.01,1.41-.17,2.02-.39-1.25,1.31-3.16,2.65-5.61,2.64Z"/><path class="cls-1" d="M42.6,24.85c-.53-.9-1.19-1.5-1.97-1.77-.82-.29-1.8-.09-2.59.52-.8.58-2.44,2.43-2.79,3.26-.1.25-.08.54.05.78.14.24.37.4.64.43h0c.73.1,1.38.14,1.96.14,2.62,0,3.83-.89,4.38-1.73.34-.51.55-1.23.31-1.64ZM40.79,26.07c-.53.44-1.61.89-3.84.71.53-.7,1.41-1.68,1.92-2.05.34-.26.85-.48,1.29-.32.41.14.78.47,1.11.98-.04.15-.16.42-.49.69Z"/><path class="cls-1" d="M72.89,26.86c-.35-.83-1.98-2.68-2.77-3.25-.82-.63-1.79-.83-2.61-.53-.78.27-1.44.87-1.97,1.77h0c-.24.41-.02,1.14.31,1.64.56.84,1.77,1.73,4.38,1.73.58,0,1.23-.04,1.96-.14.27-.04.51-.2.64-.44.14-.24.16-.53.05-.78ZM67.35,26.07c-.32-.27-.44-.54-.49-.69.33-.5.7-.83,1.12-.98.43-.15.95.07,1.3.34.5.36,1.38,1.34,1.9,2.04-2.22.18-3.31-.27-3.84-.71Z"/></g></svg>