<?xml version="1.0" encoding="UTF-8"?><svg id="Layer_2" xmlns="http://www.w3.org/2000/svg" viewBox="0 0 200.43 172.73"><defs><style>.cls-1{fill:#fff;}.cls-2{fill:#898cd3;}</style></defs><g id="Layer_2-2"><path class="cls-1" d="M0,149.31h6.54v23.12H0v-23.12Z"/><path class="cls-1" d="M29.96,162.2v10.24h-6.28v-9.22c0-2.58-1.12-3.67-2.94-3.67-2.01,0-3.57,1.25-3.57,4.23v8.66h-6.28v-17.91h5.98v1.95c1.42-1.49,3.44-2.25,5.68-2.25,4.2,0,7.4,2.41,7.4,7.96Z"/><path class="cls-1" d="M32.47,170.88l1.88-4.29c1.65,1.02,4.06,1.65,6.24,1.65s2.81-.46,2.81-1.22c0-2.41-10.57.33-10.57-6.84,0-3.37,3.11-5.95,8.72-5.95,2.51,0,5.29.53,7.07,1.52l-1.88,4.26c-1.78-.99-3.57-1.32-5.15-1.32-2.11,0-2.87.59-2.87,1.25,0,2.48,10.54-.2,10.54,6.9,0,3.3-3.04,5.88-8.85,5.88-3.04,0-6.18-.76-7.93-1.85Z"/><path class="cls-1" d="M64.32,171.71c-1.09.69-2.71,1.02-4.36,1.02-4.59,0-7.27-2.25-7.27-6.84v-6.01h-2.61v-4.69h2.61v-4.66h6.28v4.66h4.1v4.69h-4.1v5.95c0,1.32.76,2.05,1.88,2.05.69,0,1.39-.2,1.92-.56l1.55,4.39Z"/><path class="cls-1" d="M78.72,154.23v5.65c-.56-.07-.96-.1-1.42-.1-2.54,0-4.29,1.29-4.29,4.43v8.23h-6.28v-17.91h5.98v2.15c1.29-1.62,3.37-2.44,6.01-2.44Z"/><path class="cls-1" d="M100.2,154.53v17.91h-5.98v-1.92c-1.35,1.49-3.27,2.21-5.32,2.21-4.39,0-7.6-2.51-7.6-8.19v-10.01h6.28v8.99c0,2.78,1.09,3.87,2.97,3.87s3.37-1.22,3.37-4.23v-8.62h6.28Z"/><path class="cls-1" d="M103.1,163.45c0-5.38,4.26-9.22,10.27-9.22,4.06,0,7.17,1.82,8.39,4.92l-4.86,2.48c-.86-1.68-2.11-2.41-3.57-2.41-2.18,0-3.9,1.52-3.9,4.23s1.72,4.29,3.9,4.29c1.45,0,2.71-.73,3.57-2.41l4.86,2.48c-1.22,3.11-4.33,4.92-8.39,4.92-6.01,0-10.27-3.83-10.27-9.28Z"/><path class="cls-1" d="M136.8,171.71c-1.09.69-2.71,1.02-4.36,1.02-4.59,0-7.27-2.25-7.27-6.84v-6.01h-2.61v-4.69h2.61v-4.66h6.28v4.66h4.1v4.69h-4.1v5.95c0,1.32.76,2.05,1.88,2.05.69,0,1.39-.2,1.92-.56l1.55,4.39Z"/><path class="cls-1" d="M139.51,149.31h6.54v17.94h11.03v5.19h-17.58v-23.12Z"/><path class="cls-1" d="M176.41,162.49v9.94h-5.85v-2.31c-.89,1.72-2.68,2.61-5.29,2.61-4.29,0-6.67-2.41-6.67-5.52,0-3.3,2.41-5.35,7.96-5.35h3.57c-.1-1.82-1.32-2.84-3.8-2.84-1.72,0-3.63.59-4.86,1.55l-2.11-4.26c2.05-1.35,5.09-2.08,7.9-2.08,5.81,0,9.15,2.58,9.15,8.26ZM170.13,166.69v-1.55h-2.71c-2.02,0-2.74.73-2.74,1.82s.86,1.82,2.35,1.82c1.39,0,2.61-.66,3.11-2.08Z"/><path class="cls-1" d="M200.43,163.45c0,5.71-3.93,9.28-8.79,9.28-2.35,0-4.1-.66-5.29-2.08v1.78h-5.98v-24.51h6.28v8.16c1.22-1.25,2.91-1.85,4.99-1.85,4.86,0,8.79,3.53,8.79,9.22ZM194.08,163.45c0-2.71-1.65-4.23-3.77-4.23s-3.77,1.52-3.77,4.23,1.65,4.29,3.77,4.29,3.77-1.55,3.77-4.29Z"/><path class="cls-2" d="M92.11,136.15c-1.11,0-2.22-.14-3.21-.44-.98-.29-1.82-.71-2.44-1.23l-53.41-1.92c-.87-.03-1.67-.4-2.25-1.03-.58-.62-.87-1.42-.84-2.26.07-1.75,1.55-3.11,3.33-3.06l11.65.42,6.16,2.56,8.41-2.04,28.97,1.04.07.19c.3.86.93,1.58,1.77,2.01,1.19.62,2.67.59,3.84-.07.72-.4,1.28-1.02,1.59-1.75l.07-.17,54.38-3.85c1.68-.11,3.16,1.14,3.28,2.8v.07c.06.8-.2,1.58-.72,2.19-.54.62-1.29,1-2.11,1.05l-52.65,3.73c-.6.49-1.35.88-2.23,1.18-1.12.37-2.38.56-3.64.56Z"/><path class="cls-2" d="M89.71,132.6l-53.99-1.64c-.58-.02-1.04-.5-1.02-1.08.02-.58.52-1.04,1.08-1.02l53.9,1.64,57-3.14-1.53-21.98c-.04-.58.4-1.08.98-1.12.59-.04,1.08.4,1.12.98l1.67,24.11-59.22,3.27Z"/><g id="path72-9"><path class="cls-2" d="M101.37,124.23c-.34,0-.67-.16-.87-.47-.32-.48-.19-1.13.29-1.46.4-.27,10-6.67,20.1-10.08,10.17-3.44,19.2-2.74,19.58-2.71.58.05,1.01.55.96,1.13s-.55,1.01-1.13.96c-.09,0-9-.68-18.73,2.61-9.82,3.32-19.5,9.77-19.6,9.83-.18.12-.38.18-.58.18Z"/></g><g id="path73-1"><path class="cls-2" d="M110.16,124.97c-.37,0-.73-.19-.92-.54-.28-.51-.1-1.15.4-1.43.27-.15,6.83-3.79,15.92-5.28,9.08-1.49,16.78-.19,17.1-.13.57.1.95.64.86,1.22s-.64.95-1.21.86c-.08-.01-7.68-1.3-16.4.14-8.71,1.43-15.17,5.01-15.23,5.04-.16.09-.34.13-.51.13Z"/></g><g id="path72-9-8"><path class="cls-2" d="M46.08,114.1s-.04,0-.06,0c-3.44-.18-5.79-.11-5.81-.11-.59.03-1.07-.44-1.08-1.02-.02-.58.44-1.07,1.02-1.08.1,0,2.46-.08,5.99.11.58.03,1.02.53.99,1.11-.03.56-.49,1-1.05,1Z"/></g><g id="path72-9-8-2"><path class="cls-2" d="M82.4,125.91c-.19,0-.38-.05-.55-.16-.05-.03-5.35-3.31-12.04-6.21-.53-.23-.78-.85-.55-1.38.23-.53.85-.78,1.38-.55,6.84,2.97,12.26,6.32,12.31,6.36.49.31.64.95.34,1.45-.2.32-.54.5-.89.5Z"/></g><g id="path73-1-7"><path class="cls-2" d="M41.15,122.78c-.49,0-.92-.34-1.03-.84-.12-.57.24-1.12.81-1.24.06-.01,1.51-.31,3.88-.56.57-.06,1.09.36,1.16.94s-.36,1.09-.94,1.16c-2.26.24-3.66.53-3.67.53-.07.02-.15.02-.22.02Z"/></g><g id="path73-1-7-2"><path class="cls-2" d="M73.65,126.95c-.16,0-.33-.04-.48-.12-.03-.02-3.01-1.54-7.58-2.87-.56-.16-.88-.75-.72-1.3.16-.56.75-.88,1.3-.72,4.78,1.39,7.83,2.95,7.96,3.02.52.27.72.9.45,1.42-.19.36-.55.57-.94.57Z"/></g><path class="cls-2" d="M91.51,122.25c-.34,0-.67-.16-.88-.47-.32-.48-.19-1.14.29-1.46.62-.41,15.22-10.07,24.81-13.67,9.67-3.63,26.41-3.16,27.12-3.14.58.02,1.04.5,1.02,1.08-.02.58-.5,1.03-1.08,1.02-.17,0-17.04-.48-26.32,3.01-9.36,3.51-24.23,13.35-24.38,13.45-.18.12-.38.18-.58.18Z"/><path class="cls-2" d="M91.3,122.2c-.19,0-.39-.05-.56-.16-.09-.05-8.76-5.52-17.05-9.5-.52-.25-.74-.88-.49-1.4.25-.52.88-.74,1.4-.49,8.4,4.04,17.18,9.57,17.27,9.62.49.31.64.96.33,1.45-.2.32-.54.49-.89.49Z"/><path class="cls-2" d="M39.83,107.35c-.55,0-1.01-.43-1.05-.98-.04-.58.4-1.08.98-1.12.05,0,4.62-.3,10.31-.14.58.02,1.04.5,1.02,1.08-.02.58-.53,1.05-1.08,1.02-5.59-.15-10.07.14-10.12.14-.02,0-.05,0-.07,0Z"/><line class="cls-2" x1="35.67" y1="130.23" x2="36.46" y2="107.15"/><path class="cls-2" d="M35.67,131.28s-.02,0-.04,0c-.58-.02-1.03-.51-1.01-1.09l.8-23.08c.02-.58.51-1.02,1.09-1.01.58.02,1.03.51,1.01,1.09l-.8,23.08c-.02.57-.49,1.01-1.05,1.01Z"/><g id="path41"><path class="cls-2" d="M91,85.86c-9.86,0-19.42-4.43-24.93-11.55-13.49-17.43-11.41-50.11-7.11-54.04h0c4.76-4.35,17.16-14.47,29.49-14.48h.01c13.11,0,25.73,10.58,29.28,13.83,4.41,4.03,9.03,37.13-2.41,54.62-4.76,7.28-13.86,11.62-24.33,11.62ZM88.45,7.89h0c-11.59,0-23.49,9.74-28.07,13.93h0c-1.2,1.1-3.04,8.78-2.43,20.17.4,7.38,2.2,21.23,9.78,31.03,5.13,6.62,14.05,10.74,23.27,10.74,9.76,0,18.2-3.99,22.57-10.67,11.62-17.76,5.52-49.39,2.75-51.92-13.5-12.32-24.74-13.28-27.87-13.28Z"/></g><g id="path56"><path class="cls-2" d="M151.88,42.54l5.23.18"/><rect class="cls-2" x="153.45" y="40.02" width="2.1" height="5.24" transform="translate(106.45 195.54) rotate(-87.98)"/></g><g id="path57"><path class="cls-2" d="M149.9,51.94l5.27.19"/><rect class="cls-2" x="151.48" y="49.4" width="2.1" height="5.27" transform="translate(95.01 202.59) rotate(-87.93)"/></g><g id="path58"><path class="cls-2" d="M148.17,57.14l5.64.25"/><rect class="cls-2" x="149.94" y="54.44" width="2.1" height="5.65" transform="translate(87.13 205.59) rotate(-87.47)"/></g><g id="path59"><path class="cls-2" d="M150.49,47.79l5.27.19"/><rect class="cls-2" x="152.07" y="45.25" width="2.1" height="5.27" transform="translate(99.73 199.18) rotate(-87.93)"/></g><g id="ellipse43"><ellipse class="cls-1" cx="71.83" cy="55.06" rx="3.92" ry="5.58"/><path class="cls-1" d="M71.83,61.13c-2.44,0-4.42-2.72-4.42-6.07s1.98-6.07,4.42-6.07,4.42,2.72,4.42,6.07-1.98,6.07-4.42,6.07ZM71.83,49.98c-1.89,0-3.43,2.28-3.43,5.08s1.54,5.08,3.43,5.08,3.43-2.28,3.43-5.08-1.54-5.08-3.43-5.08Z"/></g><g id="ellipse44"><ellipse class="cls-1" cx="108.5" cy="55.06" rx="3.92" ry="5.58"/><path class="cls-1" d="M108.5,61.13c-2.44,0-4.42-2.72-4.42-6.07s1.98-6.07,4.42-6.07,4.42,2.72,4.42,6.07-1.98,6.07-4.42,6.07ZM108.5,49.98c-1.89,0-3.43,2.28-3.43,5.08s1.54,5.08,3.43,5.08,3.43-2.28,3.43-5.08-1.54-5.08-3.43-5.08Z"/></g><g id="path45"><path class="cls-2" d="M119.29,65.62h-16.38c-3.36,0-5.98-2.53-6.53-6.3l-1.83-12.69c-.21-1.49.24-2.97,1.29-4.18,1.27-1.47,3.23-2.35,5.24-2.35h21.89c2.18,0,4.47,1.11,5.71,2.75.89,1.19,1.17,2.57.79,3.89l-3.67,12.69c-1.48,5.12-4.35,6.19-6.5,6.19ZM101.07,41.71c-1.52,0-3.06.69-4.02,1.79-.52.6-1.1,1.59-.91,2.89l1.83,12.69c.35,2.45,2.02,4.92,4.93,4.92h16.38c2.32,0,3.99-1.69,4.96-5.03l3.67-12.69c.3-1.05-.12-1.93-.53-2.47-.93-1.24-2.75-2.11-4.42-2.11h-21.89Z"/></g><g id="path46"><path class="cls-2" d="M76.58,65.62h-16.38c-2.15,0-5.03-1.07-6.5-6.19l-3.67-12.69c-.38-1.32-.1-2.7.79-3.89,1.24-1.65,3.53-2.75,5.71-2.75h21.89c2.01,0,3.96.88,5.24,2.35,1.05,1.21,1.5,2.69,1.29,4.18l-1.83,12.69c-.54,3.77-3.17,6.3-6.53,6.3ZM56.52,41.71c-1.67,0-3.49.87-4.42,2.11-.41.55-.84,1.42-.53,2.47l3.67,12.69c.96,3.34,2.63,5.03,4.96,5.03h16.38c2.92,0,4.58-2.47,4.93-4.92l1.83-12.69c.19-1.3-.39-2.29-.91-2.89-.96-1.11-2.5-1.79-4.02-1.79h-21.89Z"/></g><g id="path47"><path class="cls-2" d="M83.24,53.52l-.41-1.14c.14-.05,3.48-1.23,7.11-1.23s6.97,1.18,7.11,1.23l-.41,1.14s-3.29-1.16-6.7-1.16-6.67,1.15-6.7,1.16Z"/></g><g id="path48"><path class="cls-2" d="M108.78,35.45c-3.01,0-4.4-1.03-5.05-1.99-.39-.58-.64-1.42-.36-1.89h0c.61-1.04,1.37-1.72,2.27-2.04.94-.34,2.06-.11,3,.62.91.65,2.79,2.78,3.19,3.74.12.29.1.62-.06.9-.16.28-.43.46-.74.5-.84.11-1.59.16-2.25.16ZM110.34,34.51s0,0,0,0c0,0,0,0,0,0ZM104.9,32.18c.05.17.19.49.56.8.61.5,1.86,1.02,4.42.81-.6-.8-1.62-1.93-2.19-2.34-.41-.31-1-.57-1.5-.39-.47.17-.9.54-1.28,1.12ZM104.77,32.39h0s0,0,0,0c0,0,0,0,0,0Z"/></g><g id="path48-2"><path class="cls-2" d="M71.58,35.45c-.67,0-1.42-.05-2.25-.16h0c-.31-.04-.58-.22-.74-.5-.16-.27-.18-.61-.06-.9.4-.96,2.28-3.09,3.21-3.76.92-.71,2.04-.93,2.98-.6.89.31,1.66,1,2.26,2.04.28.47.03,1.31-.36,1.89-.64.96-2.03,1.99-5.05,1.99ZM70.48,33.79c2.56.21,3.81-.31,4.42-.81.37-.31.51-.62.56-.8-.38-.58-.81-.96-1.28-1.12-.5-.18-1.09.08-1.48.37-.59.42-1.61,1.55-2.21,2.36Z"/></g><g id="path50"><path class="cls-2" d="M90.24,79.6s-.05,0-.08,0c-6.36-.05-9.69-6.34-9.83-6.61l-1.88-3.63,3.04,2.73s2.12,1.88,4.57,1.93h0c2.22.03,3.39-3.26,3.4-3.29l.7-1.98.7,1.98s1.19,3.29,3.36,3.29c.01,0,.03,0,.04,0,2.47-.05,4.55-1.91,4.57-1.93l3-2.72-1.84,3.61c-.14.27-3.44,6.61-9.76,6.61ZM83.76,75.09c1.44,1.48,3.61,3,6.41,3.02,2.83.02,5.01-1.53,6.46-3.04-.71.25-1.49.43-2.33.44-2.02.06-3.39-1.56-4.13-2.82-.74,1.26-2.1,2.86-4.13,2.82-.81-.02-1.58-.19-2.27-.43Z"/></g><g id="rect79"><path class="cls-1" d="M161.6,18.62l4.86-2.18c1.06-.47,2.22.03,2.59,1.14l1.84,5.51c.37,1.1-.19,2.38-1.25,2.85l-4.86,2.18c-1.06.47-2.22-.03-2.59-1.14l-1.84-5.51c-.37-1.1.19-2.38,1.25-2.85Z"/></g><g id="path80"><path class="cls-1" d="M157.49,15.28c-1.2.19-9.08.61-10.35.55-.14,0-.92-.95-.9-1.1.17-1.29,2.03-9.1,2.44-10.27.05-.13,1.05-.19,1.17-.06,1.03,1.09,7.05,8.48,7.92,9.71.1.14-.14,1.14-.27,1.16Z"/></g><g id="path81"><circle class="cls-1" cx="163.28" cy="4.82" r="4.82"/></g><g id="path70-2"><path class="cls-2" d="M92.17,132.2c-.85,0-1.7-.2-2.47-.59-1.63-.84-2.66-2.45-2.69-4.2,0-.58.45-1.06,1.03-1.07.56,0,1.06.45,1.07,1.03.02.98.61,1.88,1.55,2.37.97.5,2.17.48,3.12-.05.92-.51,1.48-1.44,1.46-2.42,0-.58.45-1.06,1.03-1.07.58-.01,1.06.45,1.07,1.03.03,1.75-.94,3.4-2.54,4.29-.81.45-1.73.68-2.64.68Z"/></g><path class="cls-2" d="M125.88,77.74c8.12-5.55,15.39-9.41,20.92-11.21.4-1.8.82-3.61,1.24-5.39-5.37,1.26-13.35,4.64-24.92,12.55-2.33,1.59-4.82,1.85-6.92,1.61.11-.16.22-.32.32-.49.65-1.01,1.26-2.09,1.84-3.25.24.05.43.09.53.12,2.68.82,6.04-.38,10.28-3.68,8.97-6.98,21.13-23.1,20.82-29.41-.2-4.07-3.77-8.18-7.54-12.53-1.36-1.57-2.76-3.18-3.98-4.78-1.52-1.99-2.82-4.07-3.96-5.91-2.2-3.54-3.94-6.34-6.5-7.39-.99-.41-2.03-.63-3.08-.66-5.36-.16-9.47,4.56-10.84,6.35-5.67-4.37-15.5-10.56-25.63-10.56h-.01c-9.09,0-18.1,5.19-24.78,10.32-1.53-1.93-5.54-6.26-10.65-6.12-1.05.03-2.09.25-3.08.66-2.11.86-3.51,3.11-5.14,5.7-1,1.6-2.14,3.41-3.52,5.04-1.01,1.19-2.11,2.42-3.17,3.61-5.09,5.71-9.89,11.09-10.15,16.26-.31,6.3,11.85,22.42,20.82,29.4,4.24,3.3,7.6,4.5,10.28,3.68.48-.15,1.77-.43,3.21-.75.84,1.44,1.74,2.79,2.69,4.04.92,1.21,1.96,2.36,3.1,3.44-.36.45-.75.93-1.15,1.43-15.78,19.62-31.86,41.29-22.86,50.09,2.07,2.03,4.59,3.06,7.38,3.06.92,0,1.87-.11,2.84-.34,9.49-2.2,20.22-15.3,23.92-25.69.45-1.28-.21-2.68-1.49-3.13-1.28-.46-2.68.21-3.13,1.49-3.2,8.99-12.81,20.8-20.41,22.55-2.32.54-4.13.07-5.69-1.45-1.46-1.43-2.73-5.75,5.12-18.73,5.46-9.02,13.08-18.5,18.13-24.78,1.01-1.25,1.9-2.36,2.63-3.29l.02-.02c-2.53-1.67-4.73-3.67-6.48-5.93-1.82-2.36-3.35-4.98-4.62-7.76l-.47.1c-2,.44-3.45.75-4.19.98-.57.18-2.45-.23-5.83-2.86-8.94-6.96-19.1-21.85-18.93-25.29.17-3.44,4.81-8.64,8.91-13.24,1.08-1.21,2.2-2.46,3.24-3.69,1.62-1.9,2.86-3.87,3.95-5.62.93-1.48,2.19-3.5,2.84-3.77.45-.18.89-.28,1.35-.29,2.69-.07,5.49,2.75,6.72,4.33l.3,4.03c5.2-4.66,16.89-13.74,28.28-13.75,11.77,0,23.59,8.99,28.59,13.55.22.2.45.52.68.93l.35-4.77c1.2-1.53,4.04-4.4,6.72-4.33.46.01.9.11,1.35.29,1.09.45,2.67,2.99,4.19,5.44,1.2,1.93,2.56,4.12,4.23,6.3,1.31,1.71,2.76,3.39,4.17,5.01,3.06,3.53,6.23,7.18,6.35,9.56.17,3.44-9.99,18.33-18.94,25.29-3.38,2.63-5.25,3.04-5.83,2.86-.37-.11-.97-.24-2.31-.5-.95,2.56-2.12,4.98-3.56,7.17-1.22,1.86-2.74,3.52-4.5,4.95l1.04.4c2.5.96,8.97,2.77,14.89-1.27Z"/><path class="cls-2" d="M121.64,101.08c4.47-2.08,12.48-5.99,20.21-10.73.37-1.93.82-4.19,1.32-6.68-7.98,5.27-17.69,10.26-24.64,13.44-1.38.63-2.17,2.11-1.92,3.61l.29,1.79c.22,1.34,1.48,2.24,2.82,2.03,1.34-.22,2.24-1.48,2.03-2.82l-.1-.64Z"/><path class="cls-2" d="M161.26,64.8c-1.2-2.08-3.14-3.48-5.6-4.04-.25-.06-.53-.11-.83-.15l-1.4,4.78c.4.03.79.07,1.14.15,1.15.26,1.92.8,2.44,1.71.31.53.66,1.41.19,2.88-.88,2.74-3.81,5.87-7.81,9.06l-2.27,7.75c7.1-4.86,13.14-10.26,14.76-15.32.78-2.43.56-4.79-.61-6.83Z"/><g id="path55"><path class="cls-2" d="M138.27,97.99l.23-1.25c.36-1.97,8.86-48.29,14.44-59.35l.3-.6,10.64.42-17.8,60.73-7.81.05ZM154.53,38.94c-4.95,10.74-12.33,49.46-13.72,56.93l3.71-.03,16.6-56.64-6.58-.26Z"/></g><g id="path44"><path class="cls-1" d="M88.14,62.06h4.05c3.65,0,2.86,1.95,2.86,4.37s-1.67,4.37-3.74,4.37h-2.3c-2.07,0-3.74-1.95-3.74-4.37s-.79-4.37,2.86-4.37Z"/></g></g></svg>