<?xml version="1.0" encoding="UTF-8"?>
<svg id="Logos" xmlns="http://www.w3.org/2000/svg" viewBox="0 0 1105 244">
  <defs>
    <style>
      .cls-1 {
        fill: #000;
      }

      .cls-1, .cls-2 {
        stroke-width: 0px;
      }

      .cls-2 {
        fill: #e00;
      }
    </style>
  </defs>
  <g>
    <path class="cls-1" d="M228.65,146.74h53.67v9.57h-42.75v21.84h28.08v9.26h-28.08v22.57h43.16v9.57h-54.08v-72.8Z"/>
    <path class="cls-1" d="M292.72,166.6h10.4v5.41c4.06-4.26,9.57-6.45,15.91-6.45,12.17,0,20.7,8.42,20.7,20.7v33.28h-10.4v-31.51c0-8.22-5.1-13.42-13.21-13.42-5.62,0-10.09,2.5-13,6.86v38.07h-10.4v-52.94Z"/>
    <path class="cls-1" d="M356.99,206.43v-31.1h-11.23v-8.74h11.23v-13.52l10.3-2.5v16.02h15.6v8.74h-15.6v28.71c0,5.41,2.18,7.49,7.8,7.49,2.91,0,4.99-.31,7.59-1.25v8.74c-2.81.94-6.86,1.46-9.88,1.46-10.3,0-15.81-4.78-15.81-14.04Z"/>
    <path class="cls-1" d="M387.25,193.02c0-15.29,11.65-27.35,26.52-27.35s25.59,12.17,25.59,27.87v2.91h-41.71c1.46,8.74,8.63,15.18,17.78,15.18,5.2,0,10.09-1.66,13.42-4.68l6.66,6.55c-6.24,4.78-12.58,6.97-20.49,6.97-15.6,0-27.77-11.96-27.77-27.46ZM429.06,188.65c-1.46-8.11-7.8-14.14-15.5-14.14s-14.35,5.72-15.81,14.14h31.3Z"/>
    <path class="cls-1" d="M449.23,166.6h10.4v6.76c3.33-5.1,8.32-8.01,14.56-8.01,2.29.1,3.74.31,5.3.94v9.36c-1.98-.73-4.06-1.14-6.14-1.14-6.14,0-11.02,3.33-13.73,9.57v35.47h-10.4v-52.94Z"/>
    <path class="cls-1" d="M487.82,166.6h10.3v5.1c4.37-3.85,9.98-5.93,16.22-5.93,15.08,0,26.73,11.96,26.73,27.25s-11.75,27.35-26.94,27.35c-5.82,0-11.34-1.98-15.91-5.41v25.79h-10.4v-74.15ZM530.87,193.12c0-10.4-7.8-18.3-17.89-18.3-6.03,0-11.34,2.29-14.77,6.34v23.92c3.43,3.95,8.84,6.24,14.77,6.24,10.19,0,17.89-7.8,17.89-18.2Z"/>
    <path class="cls-1" d="M550.94,166.6h10.4v6.76c3.33-5.1,8.32-8.01,14.56-8.01,2.29.1,3.74.31,5.3.94v9.36c-1.98-.73-4.06-1.14-6.14-1.14-6.14,0-11.03,3.33-13.73,9.57v35.47h-10.4v-52.94Z"/>
    <path class="cls-1" d="M588.38,151.62c0-3.54,2.91-6.34,6.34-6.34s6.45,2.81,6.45,6.34-2.91,6.45-6.45,6.45-6.34-2.91-6.34-6.45ZM589.53,166.6h10.4v52.94h-10.4v-52.94Z"/>
    <path class="cls-1" d="M607.2,212.78l5.72-6.86c5.41,4.37,11.23,6.66,17.16,6.66,7.49,0,12.69-3.22,12.69-7.9,0-3.85-2.71-6.03-8.53-6.86l-9.57-1.35c-10.61-1.46-15.81-6.55-15.81-14.87,0-9.46,8.32-16.02,20.8-16.02,7.7,0,14.67,2.29,21.22,6.86l-5.3,6.86c-5.82-3.85-11.13-5.62-16.75-5.62-6.34,0-10.61,2.91-10.61,7.28,0,3.95,2.5,5.93,8.74,6.76l9.57,1.35c10.5,1.46,16.02,6.55,16.02,14.77,0,9.57-9.57,16.74-22.15,16.74-9.15,0-17.37-2.81-23.19-7.8Z"/>
    <path class="cls-1" d="M658.68,193.02c0-15.29,11.65-27.35,26.52-27.35s25.59,12.17,25.59,27.87v2.91h-41.71c1.46,8.74,8.63,15.18,17.78,15.18,5.2,0,10.09-1.66,13.42-4.68l6.66,6.55c-6.24,4.78-12.58,6.97-20.49,6.97-15.6,0-27.77-11.96-27.77-27.46ZM700.49,188.65c-1.46-8.11-7.8-14.14-15.5-14.14s-14.35,5.72-15.81,14.14h31.3Z"/>
    <path class="cls-1" d="M743.65,146.74h10.92v63.13h41.91v9.67h-52.83v-72.8Z"/>
    <path class="cls-1" d="M805.12,151.62c0-3.54,2.91-6.34,6.34-6.34s6.45,2.81,6.45,6.34-2.91,6.45-6.45,6.45-6.34-2.91-6.34-6.45ZM806.26,166.6h10.4v52.94h-10.4v-52.94Z"/>
    <path class="cls-1" d="M828.93,166.6h10.4v5.41c4.06-4.26,9.57-6.45,15.91-6.45,12.17,0,20.7,8.42,20.7,20.7v33.28h-10.4v-31.51c0-8.22-5.1-13.42-13.21-13.42-5.62,0-10.09,2.5-13,6.86v38.07h-10.4v-52.94Z"/>
    <path class="cls-1" d="M887.17,199.78v-33.18h10.3v31.41c0,8.32,5.1,13.52,13.21,13.52,5.62,0,10.19-2.5,13-6.97v-37.96h10.4v52.94h-10.4v-5.41c-4.06,4.26-9.46,6.45-15.81,6.45-12.27,0-20.7-8.53-20.7-20.8Z"/>
    <path class="cls-1" d="M961.01,192.39l-19.76-25.79h12.17l13.62,18.1,13.62-18.1h11.75l-19.55,25.69,20.8,27.25h-12.17l-14.66-19.55-14.66,19.55h-11.75l20.59-27.15Z"/>
    <path class="cls-1" d="M1046.91,146.74h9.67l29.95,72.8h-8.74l-9.15-22.88h-34.32l-9.26,22.88h-8.32l30.16-72.8ZM1065.84,189.79l-14.35-35.67-14.35,35.67h28.71Z"/>
    <path class="cls-1" d="M1094.96,146.74h8.01v72.8h-8.01v-72.8Z"/>
  </g>
  <g>
    <g>
      <path class="cls-2" d="M128.97,84.99c12.5,0,30.61-2.59,30.61-17.46,0-1.16-.03-2.29-.31-3.42l-7.45-32.36c-1.73-7.11-3.23-10.35-15.74-16.6-9.7-4.96-30.83-13.15-37.08-13.15-5.82,0-7.54,7.54-14.44,7.54s-11.64-5.6-17.89-5.6-9.92,4.1-12.93,12.5c0,0-8.41,23.71-9.49,27.16-.22.65-.22,1.37-.22,1.94,0,9.22,36.29,39.45,84.94,39.45M161.52,73.57c1.73,8.19,1.73,9.05,1.73,10.13,0,14.01-15.74,21.77-36.43,21.77-46.78,0-87.74-27.38-87.74-45.48,0-2.8.65-5.39,1.51-7.33-16.82.86-38.59,3.88-38.59,23.07,0,31.47,74.59,70.28,133.65,70.28,45.27,0,56.69-20.48,56.69-36.65,0-12.72-10.99-27.16-30.83-35.79"/>
      <path class="cls-1" d="M161.52,73.57c1.73,8.19,1.73,9.05,1.73,10.13,0,14.01-15.74,21.77-36.43,21.77-46.78,0-87.74-27.38-87.74-45.48,0-2.8.65-5.39,1.51-7.33l3.67-9.06c-.22.65-.22,1.37-.22,1.94,0,9.22,36.29,39.45,84.94,39.45,12.5,0,30.61-2.59,30.61-17.46,0-1.16-.03-2.29-.31-3.42l2.25,9.46Z"/>
    </g>
    <path class="cls-1" d="M581.24,94.3c0,11.88,7.15,17.67,20.19,17.67,3.16,0,8.62-.74,11.89-1.68v-13.78c-2.84.84-4.94,1.16-7.68,1.16-5.36,0-7.36-1.68-7.36-6.73v-21.14h15.56v-14.2h-15.56v-17.98l-17.04,3.68v14.3h-11.25v14.2h11.25v24.5ZM528.29,94.62c0-3.68,3.68-5.47,9.25-5.47,3.68,0,7.05.53,10.1,1.26v7.15c-3.16,1.79-6.84,2.63-10.62,2.63-5.47,0-8.73-2.1-8.73-5.57M533.49,112.18c5.99,0,10.83-1.26,15.35-4.31v3.37h16.83v-35.65c0-13.57-9.15-21.03-24.4-21.03-8.52,0-16.93,2-25.98,6.1l6.1,12.52c6.52-2.73,11.99-4.42,16.83-4.42,7.05,0,10.62,2.73,10.62,8.31v2.73c-4-1.05-8.2-1.58-12.62-1.58-14.3,0-22.93,5.99-22.93,16.72,0,9.78,7.78,17.25,20.19,17.25M441.05,111.24h18.09v-28.82h30.29v28.82h18.09V37.62h-18.09v28.29h-30.29v-28.29h-18.09v73.62ZM372.12,83.37c0-7.99,6.31-14.09,14.62-14.09,4.63,0,8.83,1.58,11.78,4.31v19.46c-3.05,2.94-7.05,4.42-11.78,4.42-8.2,0-14.62-6.1-14.62-14.09M398.73,111.24h16.83V33.94l-17.04,3.68v20.93c-4.21-2.42-9.04-3.68-14.2-3.68-16.2,0-28.92,12.52-28.92,28.5s12.52,28.61,28.4,28.61c5.47,0,10.62-1.68,14.93-4.84v4.1ZM321.54,68.54c5.36,0,9.89,3.47,11.67,8.83h-23.24c1.68-5.57,5.89-8.83,11.57-8.83M292.83,83.47c0,16.2,13.25,28.82,30.29,28.82,9.36,0,16.2-2.52,23.24-8.41l-11.25-9.99c-2.63,2.73-6.52,4.21-11.15,4.21-6.31,0-11.46-3.47-13.67-8.83h39.65v-4.21c0-17.67-11.88-30.39-28.08-30.39s-29.03,12.62-29.03,28.82M263.49,53.08c5.99,0,9.36,3.79,9.36,8.31s-3.37,8.31-9.36,8.31h-17.88v-16.62h17.88ZM227.52,111.24h18.09v-26.82h13.78l13.88,26.82h20.19l-16.2-29.45c8.73-3.79,13.88-11.67,13.88-20.72,0-13.25-10.41-23.45-25.98-23.45h-37.65v73.62Z"/>
  </g>
</svg>